%TF.GenerationSoftware,KiCad,Pcbnew,7.0.2*%
%TF.CreationDate,2023-05-10T23:17:19+02:00*%
%TF.ProjectId,ESPlant-Board,4553506c-616e-4742-9d42-6f6172642e6b,rev?*%
%TF.SameCoordinates,PX76c48e7PY1665c4c*%
%TF.FileFunction,Copper,L1,Top*%
%TF.FilePolarity,Positive*%
%FSLAX46Y46*%
G04 Gerber Fmt 4.6, Leading zero omitted, Abs format (unit mm)*
G04 Created by KiCad (PCBNEW 7.0.2) date 2023-05-10 23:17:19*
%MOMM*%
%LPD*%
G01*
G04 APERTURE LIST*
G04 Aperture macros list*
%AMRoundRect*
0 Rectangle with rounded corners*
0 $1 Rounding radius*
0 $2 $3 $4 $5 $6 $7 $8 $9 X,Y pos of 4 corners*
0 Add a 4 corners polygon primitive as box body*
4,1,4,$2,$3,$4,$5,$6,$7,$8,$9,$2,$3,0*
0 Add four circle primitives for the rounded corners*
1,1,$1+$1,$2,$3*
1,1,$1+$1,$4,$5*
1,1,$1+$1,$6,$7*
1,1,$1+$1,$8,$9*
0 Add four rect primitives between the rounded corners*
20,1,$1+$1,$2,$3,$4,$5,0*
20,1,$1+$1,$4,$5,$6,$7,0*
20,1,$1+$1,$6,$7,$8,$9,0*
20,1,$1+$1,$8,$9,$2,$3,0*%
G04 Aperture macros list end*
%TA.AperFunction,SMDPad,CuDef*%
%ADD10RoundRect,0.140000X0.170000X-0.140000X0.170000X0.140000X-0.170000X0.140000X-0.170000X-0.140000X0*%
%TD*%
%TA.AperFunction,SMDPad,CuDef*%
%ADD11RoundRect,0.243750X-0.456250X0.243750X-0.456250X-0.243750X0.456250X-0.243750X0.456250X0.243750X0*%
%TD*%
%TA.AperFunction,SMDPad,CuDef*%
%ADD12R,1.000000X1.500000*%
%TD*%
%TA.AperFunction,SMDPad,CuDef*%
%ADD13RoundRect,0.250000X-0.300000X-0.300000X0.300000X-0.300000X0.300000X0.300000X-0.300000X0.300000X0*%
%TD*%
%TA.AperFunction,SMDPad,CuDef*%
%ADD14RoundRect,0.140000X0.140000X0.170000X-0.140000X0.170000X-0.140000X-0.170000X0.140000X-0.170000X0*%
%TD*%
%TA.AperFunction,SMDPad,CuDef*%
%ADD15RoundRect,0.135000X0.185000X-0.135000X0.185000X0.135000X-0.185000X0.135000X-0.185000X-0.135000X0*%
%TD*%
%TA.AperFunction,SMDPad,CuDef*%
%ADD16RoundRect,0.135000X-0.185000X0.135000X-0.185000X-0.135000X0.185000X-0.135000X0.185000X0.135000X0*%
%TD*%
%TA.AperFunction,ComponentPad*%
%ADD17R,1.700000X1.700000*%
%TD*%
%TA.AperFunction,ComponentPad*%
%ADD18O,1.700000X1.700000*%
%TD*%
%TA.AperFunction,SMDPad,CuDef*%
%ADD19RoundRect,0.150000X0.587500X0.150000X-0.587500X0.150000X-0.587500X-0.150000X0.587500X-0.150000X0*%
%TD*%
%TA.AperFunction,SMDPad,CuDef*%
%ADD20RoundRect,0.250000X-0.300000X0.300000X-0.300000X-0.300000X0.300000X-0.300000X0.300000X0.300000X0*%
%TD*%
%TA.AperFunction,SMDPad,CuDef*%
%ADD21RoundRect,0.135000X0.135000X0.185000X-0.135000X0.185000X-0.135000X-0.185000X0.135000X-0.185000X0*%
%TD*%
%TA.AperFunction,SMDPad,CuDef*%
%ADD22R,1.000000X2.500000*%
%TD*%
%TA.AperFunction,SMDPad,CuDef*%
%ADD23R,1.800000X1.000000*%
%TD*%
%TA.AperFunction,SMDPad,CuDef*%
%ADD24RoundRect,0.140000X-0.140000X-0.170000X0.140000X-0.170000X0.140000X0.170000X-0.140000X0.170000X0*%
%TD*%
%TA.AperFunction,SMDPad,CuDef*%
%ADD25RoundRect,0.150000X0.150000X-0.587500X0.150000X0.587500X-0.150000X0.587500X-0.150000X-0.587500X0*%
%TD*%
%TA.AperFunction,ViaPad*%
%ADD26C,0.800000*%
%TD*%
%TA.AperFunction,Conductor*%
%ADD27C,0.300000*%
%TD*%
%TA.AperFunction,Conductor*%
%ADD28C,0.500000*%
%TD*%
%TA.AperFunction,Conductor*%
%ADD29C,1.000000*%
%TD*%
G04 APERTURE END LIST*
D10*
%TO.P,C5,1*%
%TO.N,/GPIO4*%
X4302937Y-23940000D03*
%TO.P,C5,2*%
%TO.N,GND*%
X4302937Y-22980000D03*
%TD*%
D11*
%TO.P,D4,1,K*%
%TO.N,Net-(D4-K)*%
X9822937Y-31280000D03*
%TO.P,D4,2,A*%
%TO.N,+3.3V*%
X9822937Y-33155000D03*
%TD*%
D12*
%TO.P,SW1,1,1*%
%TO.N,+3.3V*%
X18153001Y-32060000D03*
%TO.P,SW1,2,2*%
%TO.N,Net-(D3-A)*%
X18153001Y-24060000D03*
%TO.P,SW1,3*%
%TO.N,N/C*%
X22652873Y-32060000D03*
%TO.P,SW1,4*%
X22652873Y-24060000D03*
%TD*%
D13*
%TO.P,D2,1,K*%
%TO.N,/AD0*%
X12512937Y-60720000D03*
%TO.P,D2,2,A*%
%TO.N,/SensorCapV*%
X15312937Y-60720000D03*
%TD*%
D14*
%TO.P,C3,1*%
%TO.N,GND*%
X7997937Y-59154000D03*
%TO.P,C3,2*%
%TO.N,/AD0*%
X7037937Y-59154000D03*
%TD*%
D15*
%TO.P,R3,1*%
%TO.N,+3.3V*%
X10526937Y-55348000D03*
%TO.P,R3,2*%
%TO.N,/GPIO2*%
X10526937Y-54328000D03*
%TD*%
%TO.P,R6,1*%
%TO.N,+3.3V*%
X19942937Y-55344000D03*
%TO.P,R6,2*%
%TO.N,/TX*%
X19942937Y-54324000D03*
%TD*%
D16*
%TO.P,R2,1*%
%TO.N,+3.3V*%
X16622937Y-31972000D03*
%TO.P,R2,2*%
%TO.N,Net-(U1-EN)*%
X16622937Y-32992000D03*
%TD*%
D17*
%TO.P,J2,1,Pin_1*%
%TO.N,+3.3V*%
X17182937Y-3440000D03*
D18*
%TO.P,J2,2,Pin_2*%
%TO.N,/TX*%
X17182937Y-5980000D03*
%TO.P,J2,3,Pin_3*%
%TO.N,/GPIO0*%
X14642937Y-3440000D03*
%TO.P,J2,4,Pin_4*%
%TO.N,/RX*%
X14642937Y-5980000D03*
%TO.P,J2,5,Pin_5*%
%TO.N,GND*%
X12102937Y-3440000D03*
%TO.P,J2,6,Pin_6*%
%TO.N,/GPIO2*%
X12102937Y-5980000D03*
%TD*%
D16*
%TO.P,R1,1*%
%TO.N,+3.3V*%
X13828937Y-33530000D03*
%TO.P,R1,2*%
%TO.N,/RST*%
X13828937Y-34550000D03*
%TD*%
D19*
%TO.P,Q2,1,C*%
%TO.N,Net-(D4-K)*%
X7080437Y-32260000D03*
%TO.P,Q2,2,B*%
%TO.N,Net-(Q2-B)*%
X7080437Y-30360000D03*
%TO.P,Q2,3,E*%
%TO.N,GND*%
X5205437Y-31310000D03*
%TD*%
D20*
%TO.P,D3,1,K*%
%TO.N,/GPIO4*%
X13042937Y-23440000D03*
%TO.P,D3,2,A*%
%TO.N,Net-(D3-A)*%
X13042937Y-26240000D03*
%TD*%
D16*
%TO.P,R5,1*%
%TO.N,/GPIO15*%
X7982937Y-54330000D03*
%TO.P,R5,2*%
%TO.N,GND*%
X7982937Y-55350000D03*
%TD*%
D15*
%TO.P,R8,1*%
%TO.N,/SensorCapV*%
X15722937Y-58364484D03*
%TO.P,R8,2*%
%TO.N,/GPIO5*%
X15722937Y-57344484D03*
%TD*%
D21*
%TO.P,R9,1*%
%TO.N,Net-(D3-A)*%
X13602937Y-28520000D03*
%TO.P,R9,2*%
%TO.N,Net-(Q1-B)*%
X12582937Y-28520000D03*
%TD*%
D15*
%TO.P,R4,1*%
%TO.N,+3.3V*%
X13066937Y-55348000D03*
%TO.P,R4,2*%
%TO.N,/GPIO0*%
X13066937Y-54328000D03*
%TD*%
D16*
%TO.P,R10,1*%
%TO.N,/GPIO4*%
X4302937Y-25760000D03*
%TO.P,R10,2*%
%TO.N,Net-(Q2-B)*%
X4302937Y-26780000D03*
%TD*%
D21*
%TO.P,R7,1*%
%TO.N,GND*%
X8007937Y-57884000D03*
%TO.P,R7,2*%
%TO.N,/AD0*%
X6987937Y-57884000D03*
%TD*%
D22*
%TO.P,U1,1,~{RST}*%
%TO.N,/RST*%
X19762937Y-36744968D03*
%TO.P,U1,2,ADC*%
%TO.N,/AD0*%
X17762937Y-36744968D03*
%TO.P,U1,3,EN*%
%TO.N,Net-(U1-EN)*%
X15762937Y-36744968D03*
%TO.P,U1,4,GPIO16*%
%TO.N,/RST*%
X13762937Y-36744968D03*
%TO.P,U1,5,GPIO14*%
%TO.N,unconnected-(U1-GPIO14-Pad5)*%
X11762937Y-36744968D03*
%TO.P,U1,6,GPIO12*%
%TO.N,unconnected-(U1-GPIO12-Pad6)*%
X9762937Y-36744968D03*
%TO.P,U1,7,GPIO13*%
%TO.N,unconnected-(U1-GPIO13-Pad7)*%
X7762937Y-36744968D03*
%TO.P,U1,8,VCC*%
%TO.N,+3.3V*%
X5762937Y-36744968D03*
D23*
%TO.P,U1,9,CS0*%
%TO.N,unconnected-(U1-CS0-Pad9)*%
X4262937Y-39344968D03*
%TO.P,U1,10,MISO*%
%TO.N,unconnected-(U1-MISO-Pad10)*%
X4262937Y-41344968D03*
%TO.P,U1,11,GPIO9*%
%TO.N,unconnected-(U1-GPIO9-Pad11)*%
X4262937Y-43344968D03*
%TO.P,U1,12,GPIO10*%
%TO.N,unconnected-(U1-GPIO10-Pad12)*%
X4262937Y-45344968D03*
%TO.P,U1,13,MOSI*%
%TO.N,unconnected-(U1-MOSI-Pad13)*%
X4262937Y-47344968D03*
%TO.P,U1,14,SCLK*%
%TO.N,unconnected-(U1-SCLK-Pad14)*%
X4262937Y-49344968D03*
D22*
%TO.P,U1,15,GND*%
%TO.N,GND*%
X5762937Y-51944968D03*
%TO.P,U1,16,GPIO15*%
%TO.N,/GPIO15*%
X7762937Y-51944968D03*
%TO.P,U1,17,GPIO2*%
%TO.N,/GPIO2*%
X9762937Y-51944968D03*
%TO.P,U1,18,GPIO0*%
%TO.N,/GPIO0*%
X11762937Y-51944968D03*
%TO.P,U1,19,GPIO4*%
%TO.N,/GPIO4*%
X13762937Y-51944968D03*
%TO.P,U1,20,GPIO5*%
%TO.N,/GPIO5*%
X15762937Y-51944968D03*
%TO.P,U1,21,GPIO3/RXD*%
%TO.N,/RX*%
X17762937Y-51944968D03*
%TO.P,U1,22,GPIO1/TXD*%
%TO.N,/TX*%
X19762937Y-51944968D03*
%TD*%
D24*
%TO.P,C1,1*%
%TO.N,GND*%
X2462937Y-34500000D03*
%TO.P,C1,2*%
%TO.N,+3.3V*%
X3422937Y-34500000D03*
%TD*%
D25*
%TO.P,Q1,1,C*%
%TO.N,/RST*%
X7952937Y-27635000D03*
%TO.P,Q1,2,B*%
%TO.N,Net-(Q1-B)*%
X9852937Y-27635000D03*
%TO.P,Q1,3,E*%
%TO.N,GND*%
X8902937Y-25760000D03*
%TD*%
D14*
%TO.P,C2,1*%
%TO.N,GND*%
X3382937Y-60260000D03*
%TO.P,C2,2*%
%TO.N,+3.3V*%
X2422937Y-60260000D03*
%TD*%
D26*
%TO.N,+3.3V*%
X3862937Y-67140000D03*
X10287687Y-61708750D03*
X18562937Y-55294000D03*
X14336937Y-55344000D03*
X10526937Y-57376000D03*
%TO.N,GND*%
X6142937Y-49220000D03*
X2462937Y-35880000D03*
X4762937Y-61640000D03*
X9362937Y-59154000D03*
%TO.N,/GPIO0*%
X11796937Y-49248000D03*
X14082937Y-20674484D03*
%TO.N,/TX*%
X15606937Y-20674484D03*
X19670937Y-49248000D03*
%TO.N,/GPIO2*%
X9764937Y-49248000D03*
X13298960Y-22048023D03*
%TO.N,/RX*%
X17638937Y-49248000D03*
X14832437Y-22087375D03*
%TO.N,/AD0*%
X7982937Y-49220000D03*
X5954937Y-57884000D03*
%TO.N,/GPIO4*%
X10780937Y-43660000D03*
X10282937Y-23920000D03*
X6602937Y-23920000D03*
%TO.N,/RST*%
X9362937Y-29440000D03*
X15098937Y-34516000D03*
X9256937Y-34516000D03*
X19670937Y-34516000D03*
%TD*%
D27*
%TO.N,Net-(U1-EN)*%
X15762937Y-35884000D02*
X16622937Y-35024000D01*
X15762937Y-36744968D02*
X15762937Y-35884000D01*
X16622937Y-32992000D02*
X16622937Y-35024000D01*
%TO.N,+3.3V*%
X15432937Y-32060000D02*
X13962937Y-33530000D01*
D28*
X2002937Y-59840000D02*
X2422937Y-60260000D01*
D27*
X13066937Y-55348000D02*
X14332937Y-55348000D01*
X9822937Y-33155000D02*
X11747937Y-33155000D01*
X16710937Y-32060000D02*
X16622937Y-31972000D01*
X10526937Y-55348000D02*
X10526937Y-57284000D01*
X15432937Y-32060000D02*
X16534937Y-32060000D01*
X3422937Y-34500000D02*
X3517969Y-34500000D01*
X25002937Y-3440000D02*
X17182937Y-3440000D01*
D28*
X2422937Y-65700000D02*
X2422937Y-60260000D01*
D27*
X18153001Y-32060000D02*
X16710937Y-32060000D01*
D28*
X2002937Y-37720000D02*
X2002937Y-59840000D01*
D27*
X5762937Y-36744968D02*
X5762937Y-35994968D01*
D28*
X3862937Y-67140000D02*
X2422937Y-65700000D01*
D27*
X11747937Y-33155000D02*
X12122937Y-33530000D01*
X25002937Y-33580000D02*
X25002937Y-3440000D01*
X9822937Y-33155000D02*
X9327937Y-33155000D01*
X5762937Y-35994968D02*
X7717905Y-34040000D01*
X10287687Y-61708750D02*
X6296437Y-65700000D01*
X16534937Y-32060000D02*
X16622937Y-31972000D01*
X7717905Y-34040000D02*
X8442937Y-34040000D01*
X10526937Y-57284000D02*
X10526937Y-57376000D01*
X14332937Y-55348000D02*
X14336937Y-55344000D01*
X19673001Y-33580000D02*
X25002937Y-33580000D01*
X10526937Y-55348000D02*
X13066937Y-55348000D01*
X3517969Y-34500000D02*
X5762937Y-36744968D01*
D28*
X2977969Y-36744968D02*
X2002937Y-37720000D01*
D27*
X18153001Y-32060000D02*
X19673001Y-33580000D01*
D28*
X5762937Y-36744968D02*
X2977969Y-36744968D01*
D27*
X9327937Y-33155000D02*
X8442937Y-34040000D01*
X12122937Y-33530000D02*
X13962937Y-33530000D01*
X19942937Y-55344000D02*
X18612937Y-55344000D01*
X6296437Y-65700000D02*
X2422937Y-65700000D01*
%TO.N,GND*%
X3352937Y-31310000D02*
X5205437Y-31310000D01*
X7962937Y-22980000D02*
X8902937Y-23920000D01*
X2462937Y-34500000D02*
X2462937Y-35880000D01*
X6142937Y-51564968D02*
X5762937Y-51944968D01*
D28*
X3842937Y-53864968D02*
X3842937Y-59800000D01*
X4762937Y-61640000D02*
X3382937Y-60260000D01*
X5762937Y-51944968D02*
X3842937Y-53864968D01*
D27*
X2462937Y-32200000D02*
X3352937Y-31310000D01*
D28*
X3842937Y-59800000D02*
X3382937Y-60260000D01*
D27*
X2462937Y-23920000D02*
X2462937Y-3440000D01*
X9362937Y-59154000D02*
X7997937Y-59154000D01*
X7982937Y-55350000D02*
X7982937Y-57859000D01*
X7997937Y-57894000D02*
X8007937Y-57884000D01*
X8902937Y-23920000D02*
X8902937Y-25760000D01*
X2462937Y-34500000D02*
X2462937Y-32200000D01*
X2462937Y-32200000D02*
X2462937Y-23920000D01*
X2462937Y-23920000D02*
X3402937Y-22980000D01*
X6142937Y-49220000D02*
X6142937Y-51564968D01*
X4302937Y-22980000D02*
X7962937Y-22980000D01*
X7982937Y-57859000D02*
X8007937Y-57884000D01*
X3402937Y-22980000D02*
X4302937Y-22980000D01*
X2462937Y-3440000D02*
X12102937Y-3440000D01*
X7997937Y-59154000D02*
X7997937Y-57894000D01*
D29*
%TO.N,/SensorCapV*%
X14422937Y-100280000D02*
X14422937Y-104420000D01*
D27*
X15722937Y-58364484D02*
X15722937Y-60310000D01*
X15722937Y-60310000D02*
X15312937Y-60720000D01*
D29*
X14422937Y-66240000D02*
X15312937Y-65350000D01*
X14422937Y-66240000D02*
X14422937Y-86020000D01*
X15312937Y-65350000D02*
X15312937Y-60720000D01*
X14422937Y-86020000D02*
X14422937Y-100280000D01*
D27*
%TO.N,Net-(D3-A)*%
X13942937Y-26240000D02*
X16122937Y-24060000D01*
X16122937Y-24060000D02*
X18153001Y-24060000D01*
X13942937Y-28180000D02*
X13602937Y-28520000D01*
X13042937Y-26240000D02*
X13942937Y-26240000D01*
X13942937Y-26240000D02*
X13942937Y-28180000D01*
%TO.N,Net-(D4-K)*%
X8902937Y-31280000D02*
X9822937Y-31280000D01*
X7080437Y-32260000D02*
X7922937Y-32260000D01*
X7922937Y-32260000D02*
X8902937Y-31280000D01*
%TO.N,Net-(Q1-B)*%
X12582937Y-28520000D02*
X10737937Y-28520000D01*
X10737937Y-28520000D02*
X9852937Y-27635000D01*
%TO.N,Net-(Q2-B)*%
X4302937Y-27582500D02*
X4302937Y-26780000D01*
X7080437Y-30360000D02*
X4302937Y-27582500D01*
%TO.N,/GPIO0*%
X14082937Y-7954484D02*
X13362937Y-7234484D01*
X11762937Y-53024000D02*
X11762937Y-51944968D01*
X13066937Y-54328000D02*
X11762937Y-53024000D01*
X14082937Y-20674484D02*
X14082937Y-7954484D01*
X13362937Y-4720000D02*
X14642937Y-3440000D01*
X11796937Y-49248000D02*
X11796937Y-51910968D01*
X13362937Y-7234484D02*
X13362937Y-4720000D01*
%TO.N,/TX*%
X19670937Y-49248000D02*
X19670937Y-51852968D01*
X15606937Y-7556000D02*
X17182937Y-5980000D01*
X19670937Y-51852968D02*
X19762937Y-51944968D01*
X19942937Y-54230000D02*
X19942937Y-52124968D01*
X19942937Y-52124968D02*
X19762937Y-51944968D01*
X15606937Y-20674484D02*
X15606937Y-7556000D01*
%TO.N,/GPIO2*%
X13298960Y-8280507D02*
X12102937Y-7084484D01*
X12102937Y-7084484D02*
X12102937Y-5980000D01*
X9762937Y-53564000D02*
X9762937Y-51944968D01*
X10526937Y-54328000D02*
X9762937Y-53564000D01*
X9764937Y-49248000D02*
X9764937Y-51942968D01*
X13298960Y-22048023D02*
X13298960Y-8280507D01*
%TO.N,/RX*%
X17638937Y-51820968D02*
X17762937Y-51944968D01*
X17638937Y-49248000D02*
X17638937Y-51820968D01*
X14832437Y-22087375D02*
X14832437Y-6169500D01*
X14832437Y-6169500D02*
X14642937Y-5980000D01*
%TO.N,/AD0*%
X7986937Y-48486000D02*
X7986937Y-40104000D01*
X7982937Y-49220000D02*
X7982937Y-48490000D01*
X6987937Y-59104000D02*
X7037937Y-59154000D01*
X7522937Y-60720000D02*
X12512937Y-60720000D01*
X7037937Y-59154000D02*
X7037937Y-60235000D01*
X5954937Y-57884000D02*
X6987937Y-57884000D01*
X7037937Y-60235000D02*
X7522937Y-60720000D01*
X6987937Y-57884000D02*
X6987937Y-59104000D01*
X7982937Y-48490000D02*
X7986937Y-48486000D01*
X17762937Y-38710000D02*
X17762937Y-36744968D01*
X7986937Y-40104000D02*
X16368937Y-40104000D01*
X16368937Y-40104000D02*
X17762937Y-38710000D01*
%TO.N,/GPIO4*%
X6582937Y-23940000D02*
X6602937Y-23920000D01*
X12562937Y-23920000D02*
X13042937Y-23440000D01*
X4302937Y-25760000D02*
X4302937Y-23940000D01*
X13762937Y-46642000D02*
X10780937Y-43660000D01*
X13762937Y-51944968D02*
X13762937Y-46642000D01*
X4302937Y-23940000D02*
X6582937Y-23940000D01*
X10282937Y-23920000D02*
X12562937Y-23920000D01*
%TO.N,/RST*%
X15064937Y-34550000D02*
X15098937Y-34516000D01*
X19670937Y-34516000D02*
X19670937Y-36652968D01*
X9256937Y-34516000D02*
X13794937Y-34516000D01*
X13762937Y-34616000D02*
X13828937Y-34550000D01*
X13794937Y-34516000D02*
X13828937Y-34550000D01*
X7952937Y-28030000D02*
X9362937Y-29440000D01*
X13762937Y-36744968D02*
X13762937Y-34616000D01*
X13828937Y-34550000D02*
X15064937Y-34550000D01*
X19670937Y-36652968D02*
X19762937Y-36744968D01*
X7952937Y-27635000D02*
X7952937Y-28030000D01*
%TO.N,/GPIO15*%
X7982937Y-54330000D02*
X7982937Y-52164968D01*
X7982937Y-52164968D02*
X7762937Y-51944968D01*
%TO.N,/GPIO5*%
X15762937Y-57304484D02*
X15722937Y-57344484D01*
X15762937Y-51944968D02*
X15762937Y-57304484D01*
%TD*%
%TA.AperFunction,Conductor*%
%TO.N,/SensorCapV*%
G36*
X14589489Y-102849446D02*
G01*
X14607013Y-102850505D01*
X14891900Y-102867738D01*
X14895638Y-102868078D01*
X14907128Y-102869473D01*
X14910850Y-102870039D01*
X15208847Y-102924650D01*
X15212522Y-102925439D01*
X15223751Y-102928207D01*
X15227381Y-102929218D01*
X15516638Y-103019355D01*
X15520163Y-103020571D01*
X15530990Y-103024678D01*
X15534466Y-103026118D01*
X15810734Y-103150456D01*
X15814129Y-103152109D01*
X15824370Y-103157484D01*
X15827658Y-103159339D01*
X16086903Y-103316058D01*
X16090073Y-103318107D01*
X16099590Y-103324676D01*
X16102631Y-103326914D01*
X16341105Y-103513746D01*
X16344002Y-103516160D01*
X16352662Y-103523831D01*
X16355414Y-103526422D01*
X16569614Y-103740622D01*
X16572205Y-103743374D01*
X16579876Y-103752034D01*
X16582290Y-103754931D01*
X16769122Y-103993405D01*
X16771360Y-103996446D01*
X16777929Y-104005963D01*
X16779978Y-104009133D01*
X16936697Y-104268378D01*
X16938552Y-104271666D01*
X16943927Y-104281907D01*
X16945580Y-104285302D01*
X17069918Y-104561570D01*
X17071360Y-104565052D01*
X17075455Y-104575846D01*
X17076689Y-104579421D01*
X17166816Y-104868650D01*
X17167829Y-104872285D01*
X17170597Y-104883514D01*
X17171390Y-104887207D01*
X17225995Y-105185175D01*
X17226563Y-105188908D01*
X17227958Y-105200398D01*
X17228300Y-105204158D01*
X17246648Y-105507506D01*
X17246733Y-105509378D01*
X17246908Y-105515130D01*
X17246937Y-105517031D01*
X17246937Y-152505168D01*
X17246908Y-152507069D01*
X17246733Y-152512821D01*
X17246648Y-152514693D01*
X17228300Y-152818041D01*
X17227958Y-152821801D01*
X17226563Y-152833291D01*
X17225995Y-152837024D01*
X17171390Y-153134992D01*
X17170597Y-153138685D01*
X17167829Y-153149914D01*
X17166816Y-153153549D01*
X17076689Y-153442778D01*
X17075455Y-153446353D01*
X17071360Y-153457147D01*
X17069918Y-153460629D01*
X16945580Y-153736897D01*
X16943927Y-153740292D01*
X16938552Y-153750533D01*
X16936697Y-153753821D01*
X16779978Y-154013066D01*
X16777929Y-154016236D01*
X16771360Y-154025753D01*
X16769122Y-154028794D01*
X16582290Y-154267268D01*
X16579876Y-154270165D01*
X16572205Y-154278825D01*
X16569614Y-154281577D01*
X16355414Y-154495777D01*
X16352662Y-154498368D01*
X16344002Y-154506039D01*
X16341105Y-154508453D01*
X16102631Y-154695285D01*
X16099590Y-154697523D01*
X16090073Y-154704092D01*
X16086903Y-154706141D01*
X15827658Y-154862860D01*
X15824370Y-154864715D01*
X15814129Y-154870090D01*
X15810734Y-154871743D01*
X15534466Y-154996081D01*
X15530984Y-154997523D01*
X15520190Y-155001618D01*
X15516615Y-155002852D01*
X15227386Y-155092979D01*
X15223751Y-155093992D01*
X15212522Y-155096760D01*
X15208829Y-155097553D01*
X14910861Y-155152158D01*
X14907128Y-155152726D01*
X14895638Y-155154121D01*
X14891879Y-155154463D01*
X14589490Y-155172754D01*
X14585716Y-155172868D01*
X14574158Y-155172868D01*
X14570384Y-155172754D01*
X14267994Y-155154463D01*
X14264235Y-155154121D01*
X14252745Y-155152726D01*
X14249012Y-155152158D01*
X13951044Y-155097553D01*
X13947351Y-155096760D01*
X13936122Y-155093992D01*
X13932487Y-155092979D01*
X13643258Y-155002852D01*
X13639691Y-155001620D01*
X13635116Y-154999885D01*
X13628889Y-154997523D01*
X13625407Y-154996081D01*
X13349139Y-154871743D01*
X13345744Y-154870090D01*
X13335503Y-154864715D01*
X13332215Y-154862860D01*
X13072970Y-154706141D01*
X13069800Y-154704092D01*
X13060283Y-154697523D01*
X13057242Y-154695285D01*
X12818768Y-154508453D01*
X12815871Y-154506039D01*
X12807211Y-154498368D01*
X12804459Y-154495777D01*
X12590259Y-154281577D01*
X12587668Y-154278825D01*
X12579997Y-154270165D01*
X12577583Y-154267268D01*
X12390751Y-154028794D01*
X12388513Y-154025753D01*
X12381944Y-154016236D01*
X12379895Y-154013066D01*
X12223176Y-153753821D01*
X12221321Y-153750533D01*
X12215946Y-153740292D01*
X12214293Y-153736897D01*
X12089955Y-153460629D01*
X12088513Y-153457147D01*
X12084408Y-153446326D01*
X12083192Y-153442801D01*
X11993055Y-153153544D01*
X11992044Y-153149914D01*
X11989276Y-153138685D01*
X11988487Y-153135010D01*
X11933876Y-152837013D01*
X11933310Y-152833291D01*
X11931915Y-152821801D01*
X11931575Y-152818063D01*
X11913225Y-152514693D01*
X11913140Y-152512810D01*
X11912966Y-152507058D01*
X11912937Y-152505168D01*
X11912937Y-105517031D01*
X11912966Y-105515141D01*
X11913140Y-105509389D01*
X11913225Y-105507506D01*
X11931575Y-105204133D01*
X11931915Y-105200398D01*
X11933310Y-105188908D01*
X11933875Y-105185191D01*
X11988488Y-104887182D01*
X11989276Y-104883514D01*
X11992044Y-104872285D01*
X11993057Y-104868650D01*
X12083195Y-104579388D01*
X12084405Y-104575883D01*
X12088520Y-104565034D01*
X12089949Y-104561584D01*
X12214298Y-104285289D01*
X12215939Y-104281921D01*
X12221323Y-104271661D01*
X12223176Y-104268378D01*
X12379895Y-104009133D01*
X12381934Y-104005977D01*
X12388529Y-103996424D01*
X12390739Y-103993421D01*
X12577596Y-103754915D01*
X12579983Y-103752050D01*
X12587683Y-103743357D01*
X12590242Y-103740639D01*
X12804476Y-103526405D01*
X12807194Y-103523846D01*
X12815887Y-103516146D01*
X12818752Y-103513759D01*
X13057258Y-103326902D01*
X13060261Y-103324692D01*
X13069814Y-103318097D01*
X13072970Y-103316058D01*
X13332215Y-103159339D01*
X13335503Y-103157484D01*
X13345758Y-103152102D01*
X13349126Y-103150461D01*
X13625421Y-103026112D01*
X13628871Y-103024683D01*
X13639720Y-103020568D01*
X13643225Y-103019358D01*
X13932501Y-102929216D01*
X13936122Y-102928207D01*
X13937688Y-102927820D01*
X13947360Y-102925437D01*
X13951019Y-102924651D01*
X14249028Y-102870038D01*
X14252745Y-102869473D01*
X14260945Y-102868477D01*
X14264238Y-102868077D01*
X14267970Y-102867738D01*
X14554217Y-102850423D01*
X14570385Y-102849446D01*
X14574158Y-102849332D01*
X14585716Y-102849332D01*
X14589489Y-102849446D01*
G37*
%TD.AperFunction*%
%TD*%
M02*
