M48
; DRILL file {KiCad 7.0.2} date Wed May 10 23:17:19 2023
; FORMAT={-:-/ absolute / inch / decimal}
; #@! TF.CreationDate,2023-05-10T23:17:19+02:00
; #@! TF.GenerationSoftware,Kicad,Pcbnew,7.0.2
; #@! TF.FileFunction,Plated,1,2,PTH
FMAT,2
INCH
; #@! TA.AperFunction,Plated,PTH,ViaDrill
T1C0.0157
; #@! TA.AperFunction,Plated,PTH,ComponentDrill
T2C0.0394
%
G90
G05
T1
X0.097Y-1.4126
X0.1521Y-2.6433
X0.1875Y-2.4268
X0.2344Y-2.2789
X0.2418Y-1.9378
X0.26Y-0.9417
X0.3143Y-1.9378
X0.3644Y-1.3589
X0.3686Y-1.1591
X0.3686Y-2.3289
X0.3844Y-1.9389
X0.4048Y-0.9417
X0.405Y-2.4295
X0.4144Y-2.2589
X0.4244Y-1.7189
X0.4644Y-1.9389
X0.5236Y-0.868
X0.5544Y-0.814
X0.5644Y-2.1789
X0.584Y-0.8696
X0.5944Y-1.3589
X0.6144Y-0.814
X0.6944Y-1.9389
X0.7308Y-2.1769
X0.7744Y-1.3589
X0.7744Y-1.9389
T2
X0.4765Y-0.1354
X0.4765Y-0.2354
X0.5765Y-0.1354
X0.5765Y-0.2354
X0.6765Y-0.1354
X0.6765Y-0.2354
T0
M30
