%TF.GenerationSoftware,KiCad,Pcbnew,7.0.2*%
%TF.CreationDate,2023-05-10T23:17:19+02:00*%
%TF.ProjectId,ESPlant-Board,4553506c-616e-4742-9d42-6f6172642e6b,rev?*%
%TF.SameCoordinates,PX76c48e7PY1665c4c*%
%TF.FileFunction,Other,Comment*%
%FSLAX46Y46*%
G04 Gerber Fmt 4.6, Leading zero omitted, Abs format (unit mm)*
G04 Created by KiCad (PCBNEW 7.0.2) date 2023-05-10 23:17:19*
%MOMM*%
%LPD*%
G01*
G04 APERTURE LIST*
%ADD10C,0.150000*%
G04 APERTURE END LIST*
D10*
%TO.C,U1*%
X26275556Y-50446396D02*
X25275556Y-50446396D01*
X26275556Y-49874968D02*
X25704127Y-50303539D01*
X25275556Y-49874968D02*
X25846984Y-50446396D01*
X25751746Y-49446396D02*
X25751746Y-49113063D01*
X26275556Y-48970206D02*
X26275556Y-49446396D01*
X26275556Y-49446396D02*
X25275556Y-49446396D01*
X25275556Y-49446396D02*
X25275556Y-48970206D01*
X25751746Y-48541634D02*
X25751746Y-48208301D01*
X26275556Y-48065444D02*
X26275556Y-48541634D01*
X26275556Y-48541634D02*
X25275556Y-48541634D01*
X25275556Y-48541634D02*
X25275556Y-48065444D01*
X26275556Y-47636872D02*
X25275556Y-47636872D01*
X25275556Y-47636872D02*
X25275556Y-47255920D01*
X25275556Y-47255920D02*
X25323175Y-47160682D01*
X25323175Y-47160682D02*
X25370794Y-47113063D01*
X25370794Y-47113063D02*
X25466032Y-47065444D01*
X25466032Y-47065444D02*
X25608889Y-47065444D01*
X25608889Y-47065444D02*
X25704127Y-47113063D01*
X25704127Y-47113063D02*
X25751746Y-47160682D01*
X25751746Y-47160682D02*
X25799365Y-47255920D01*
X25799365Y-47255920D02*
X25799365Y-47636872D01*
X25894603Y-46636872D02*
X25894603Y-45874968D01*
X25275556Y-45208301D02*
X25275556Y-45017825D01*
X25275556Y-45017825D02*
X25323175Y-44922587D01*
X25323175Y-44922587D02*
X25418413Y-44827349D01*
X25418413Y-44827349D02*
X25608889Y-44779730D01*
X25608889Y-44779730D02*
X25942222Y-44779730D01*
X25942222Y-44779730D02*
X26132698Y-44827349D01*
X26132698Y-44827349D02*
X26227937Y-44922587D01*
X26227937Y-44922587D02*
X26275556Y-45017825D01*
X26275556Y-45017825D02*
X26275556Y-45208301D01*
X26275556Y-45208301D02*
X26227937Y-45303539D01*
X26227937Y-45303539D02*
X26132698Y-45398777D01*
X26132698Y-45398777D02*
X25942222Y-45446396D01*
X25942222Y-45446396D02*
X25608889Y-45446396D01*
X25608889Y-45446396D02*
X25418413Y-45398777D01*
X25418413Y-45398777D02*
X25323175Y-45303539D01*
X25323175Y-45303539D02*
X25275556Y-45208301D01*
X25275556Y-44351158D02*
X26085079Y-44351158D01*
X26085079Y-44351158D02*
X26180317Y-44303539D01*
X26180317Y-44303539D02*
X26227937Y-44255920D01*
X26227937Y-44255920D02*
X26275556Y-44160682D01*
X26275556Y-44160682D02*
X26275556Y-43970206D01*
X26275556Y-43970206D02*
X26227937Y-43874968D01*
X26227937Y-43874968D02*
X26180317Y-43827349D01*
X26180317Y-43827349D02*
X26085079Y-43779730D01*
X26085079Y-43779730D02*
X25275556Y-43779730D01*
X25275556Y-43446396D02*
X25275556Y-42874968D01*
X26275556Y-43160682D02*
X25275556Y-43160682D01*
X25275556Y-41874967D02*
X25275556Y-41208301D01*
X25275556Y-41208301D02*
X26275556Y-41874967D01*
X26275556Y-41874967D02*
X26275556Y-41208301D01*
X25275556Y-40636872D02*
X25275556Y-40446396D01*
X25275556Y-40446396D02*
X25323175Y-40351158D01*
X25323175Y-40351158D02*
X25418413Y-40255920D01*
X25418413Y-40255920D02*
X25608889Y-40208301D01*
X25608889Y-40208301D02*
X25942222Y-40208301D01*
X25942222Y-40208301D02*
X26132698Y-40255920D01*
X26132698Y-40255920D02*
X26227937Y-40351158D01*
X26227937Y-40351158D02*
X26275556Y-40446396D01*
X26275556Y-40446396D02*
X26275556Y-40636872D01*
X26275556Y-40636872D02*
X26227937Y-40732110D01*
X26227937Y-40732110D02*
X26132698Y-40827348D01*
X26132698Y-40827348D02*
X25942222Y-40874967D01*
X25942222Y-40874967D02*
X25608889Y-40874967D01*
X25608889Y-40874967D02*
X25418413Y-40827348D01*
X25418413Y-40827348D02*
X25323175Y-40732110D01*
X25323175Y-40732110D02*
X25275556Y-40636872D01*
X26275556Y-39779729D02*
X25275556Y-39779729D01*
X25275556Y-39779729D02*
X26275556Y-39208301D01*
X26275556Y-39208301D02*
X25275556Y-39208301D01*
X25751746Y-38732110D02*
X25751746Y-38398777D01*
X26275556Y-38255920D02*
X26275556Y-38732110D01*
X26275556Y-38732110D02*
X25275556Y-38732110D01*
X25275556Y-38732110D02*
X25275556Y-38255920D01*
X23439841Y-47046872D02*
X23439841Y-46570682D01*
X23725556Y-47142110D02*
X22725556Y-46808777D01*
X22725556Y-46808777D02*
X23725556Y-46475444D01*
X23058889Y-46142110D02*
X23725556Y-46142110D01*
X23154127Y-46142110D02*
X23106508Y-46094491D01*
X23106508Y-46094491D02*
X23058889Y-45999253D01*
X23058889Y-45999253D02*
X23058889Y-45856396D01*
X23058889Y-45856396D02*
X23106508Y-45761158D01*
X23106508Y-45761158D02*
X23201746Y-45713539D01*
X23201746Y-45713539D02*
X23725556Y-45713539D01*
X23058889Y-45380205D02*
X23058889Y-44999253D01*
X22725556Y-45237348D02*
X23582698Y-45237348D01*
X23582698Y-45237348D02*
X23677937Y-45189729D01*
X23677937Y-45189729D02*
X23725556Y-45094491D01*
X23725556Y-45094491D02*
X23725556Y-44999253D01*
X23677937Y-44284967D02*
X23725556Y-44380205D01*
X23725556Y-44380205D02*
X23725556Y-44570681D01*
X23725556Y-44570681D02*
X23677937Y-44665919D01*
X23677937Y-44665919D02*
X23582698Y-44713538D01*
X23582698Y-44713538D02*
X23201746Y-44713538D01*
X23201746Y-44713538D02*
X23106508Y-44665919D01*
X23106508Y-44665919D02*
X23058889Y-44570681D01*
X23058889Y-44570681D02*
X23058889Y-44380205D01*
X23058889Y-44380205D02*
X23106508Y-44284967D01*
X23106508Y-44284967D02*
X23201746Y-44237348D01*
X23201746Y-44237348D02*
X23296984Y-44237348D01*
X23296984Y-44237348D02*
X23392222Y-44713538D01*
X23058889Y-43808776D02*
X23725556Y-43808776D01*
X23154127Y-43808776D02*
X23106508Y-43761157D01*
X23106508Y-43761157D02*
X23058889Y-43665919D01*
X23058889Y-43665919D02*
X23058889Y-43523062D01*
X23058889Y-43523062D02*
X23106508Y-43427824D01*
X23106508Y-43427824D02*
X23201746Y-43380205D01*
X23201746Y-43380205D02*
X23725556Y-43380205D01*
X23058889Y-42904014D02*
X23725556Y-42904014D01*
X23154127Y-42904014D02*
X23106508Y-42856395D01*
X23106508Y-42856395D02*
X23058889Y-42761157D01*
X23058889Y-42761157D02*
X23058889Y-42618300D01*
X23058889Y-42618300D02*
X23106508Y-42523062D01*
X23106508Y-42523062D02*
X23201746Y-42475443D01*
X23201746Y-42475443D02*
X23725556Y-42475443D01*
X23725556Y-41570681D02*
X23201746Y-41570681D01*
X23201746Y-41570681D02*
X23106508Y-41618300D01*
X23106508Y-41618300D02*
X23058889Y-41713538D01*
X23058889Y-41713538D02*
X23058889Y-41904014D01*
X23058889Y-41904014D02*
X23106508Y-41999252D01*
X23677937Y-41570681D02*
X23725556Y-41665919D01*
X23725556Y-41665919D02*
X23725556Y-41904014D01*
X23725556Y-41904014D02*
X23677937Y-41999252D01*
X23677937Y-41999252D02*
X23582698Y-42046871D01*
X23582698Y-42046871D02*
X23487460Y-42046871D01*
X23487460Y-42046871D02*
X23392222Y-41999252D01*
X23392222Y-41999252D02*
X23344603Y-41904014D01*
X23344603Y-41904014D02*
X23344603Y-41665919D01*
X23344603Y-41665919D02*
X23296984Y-41570681D01*
%TD*%
M02*
