%TF.GenerationSoftware,KiCad,Pcbnew,7.0.2*%
%TF.CreationDate,2023-05-10T23:17:19+02:00*%
%TF.ProjectId,ESPlant-Board,4553506c-616e-4742-9d42-6f6172642e6b,rev?*%
%TF.SameCoordinates,PX76c48e7PY1665c4c*%
%TF.FileFunction,Copper,L2,Bot*%
%TF.FilePolarity,Positive*%
%FSLAX46Y46*%
G04 Gerber Fmt 4.6, Leading zero omitted, Abs format (unit mm)*
G04 Created by KiCad (PCBNEW 7.0.2) date 2023-05-10 23:17:19*
%MOMM*%
%LPD*%
G01*
G04 APERTURE LIST*
%TA.AperFunction,ComponentPad*%
%ADD10R,1.700000X1.700000*%
%TD*%
%TA.AperFunction,ComponentPad*%
%ADD11O,1.700000X1.700000*%
%TD*%
%TA.AperFunction,SMDPad,CuDef*%
%ADD12R,7.000025X11.000025*%
%TD*%
%TA.AperFunction,ViaPad*%
%ADD13C,0.800000*%
%TD*%
%TA.AperFunction,Conductor*%
%ADD14C,0.300000*%
%TD*%
%TA.AperFunction,Conductor*%
%ADD15C,0.500000*%
%TD*%
%TA.AperFunction,Conductor*%
%ADD16C,1.000000*%
%TD*%
G04 APERTURE END LIST*
D10*
%TO.P,J2,1,Pin_1*%
%TO.N,+3.3V*%
X17182937Y-3440000D03*
D11*
%TO.P,J2,2,Pin_2*%
%TO.N,/TX*%
X17182937Y-5980000D03*
%TO.P,J2,3,Pin_3*%
%TO.N,/GPIO0*%
X14642937Y-3440000D03*
%TO.P,J2,4,Pin_4*%
%TO.N,/RX*%
X14642937Y-5980000D03*
%TO.P,J2,5,Pin_5*%
%TO.N,GND*%
X12102937Y-3440000D03*
%TO.P,J2,6,Pin_6*%
%TO.N,/GPIO2*%
X12102937Y-5980000D03*
%TD*%
D12*
%TO.P,BT1,1,+*%
%TO.N,+3.3V*%
X8942937Y-72220000D03*
%TO.P,BT1,2,-*%
%TO.N,Net-(BT1-+-Pad3)*%
X8942937Y-16469936D03*
%TO.P,BT1,3,+*%
X19942937Y-16469936D03*
%TO.P,BT1,4,-*%
%TO.N,GND*%
X19942937Y-72220000D03*
%TD*%
D13*
%TO.N,+3.3V*%
X3862937Y-67140000D03*
X10287687Y-61708750D03*
X18562937Y-55294000D03*
X14336937Y-55344000D03*
X10526937Y-57376000D03*
%TO.N,GND*%
X6142937Y-49220000D03*
X2462937Y-35880000D03*
X4762937Y-61640000D03*
X9362937Y-59154000D03*
%TO.N,/GPIO0*%
X11796937Y-49248000D03*
X14082937Y-20674484D03*
%TO.N,/TX*%
X15606937Y-20674484D03*
X19670937Y-49248000D03*
%TO.N,/GPIO2*%
X9764937Y-49248000D03*
X13298960Y-22048023D03*
%TO.N,/RX*%
X17638937Y-49248000D03*
X14832437Y-22087375D03*
%TO.N,/AD0*%
X7982937Y-49220000D03*
X5954937Y-57884000D03*
%TO.N,/GPIO4*%
X10780937Y-43660000D03*
X10282937Y-23920000D03*
X6602937Y-23920000D03*
%TO.N,/RST*%
X9362937Y-29440000D03*
X15098937Y-34516000D03*
X9256937Y-34516000D03*
X19670937Y-34516000D03*
%TD*%
D14*
%TO.N,+3.3V*%
X14336937Y-55344000D02*
X18512937Y-55344000D01*
X10526937Y-57376000D02*
X10526937Y-61469500D01*
X10526937Y-61469500D02*
X10287687Y-61708750D01*
D15*
X3862937Y-67140000D02*
X8942937Y-72220000D01*
D14*
%TO.N,GND*%
X2462937Y-35880000D02*
X6142937Y-39560000D01*
D15*
X19942937Y-72220000D02*
X19942937Y-68540000D01*
X19942937Y-68540000D02*
X16262937Y-64860000D01*
X7982937Y-64860000D02*
X4762937Y-61640000D01*
D16*
X14422937Y-104394484D02*
X14422937Y-77740000D01*
X14422937Y-77740000D02*
X19942937Y-72220000D01*
D15*
X14422937Y-106492868D02*
X14422937Y-104692868D01*
X9362937Y-64860000D02*
X7982937Y-64860000D01*
X16262937Y-64860000D02*
X9362937Y-64860000D01*
D14*
X6142937Y-39560000D02*
X6142937Y-49220000D01*
D15*
X14422937Y-104692868D02*
X14382937Y-104652868D01*
D14*
X9362937Y-59154000D02*
X9362937Y-64860000D01*
%TO.N,/GPIO0*%
X12558937Y-48486000D02*
X11796937Y-49248000D01*
X14082937Y-22324000D02*
X14082937Y-20674484D01*
X12558937Y-23848000D02*
X12558937Y-48486000D01*
X14082937Y-22324000D02*
X12558937Y-23848000D01*
%TO.N,/TX*%
X14082937Y-43660000D02*
X14082937Y-24356000D01*
X14082937Y-24356000D02*
X15606937Y-22832000D01*
X19670937Y-49248000D02*
X14082937Y-43660000D01*
X15606937Y-22832000D02*
X15606937Y-20674484D01*
%TO.N,/GPIO2*%
X11796937Y-46962000D02*
X11796937Y-23550046D01*
X9764937Y-48994000D02*
X11796937Y-46962000D01*
X11796937Y-23550046D02*
X13298960Y-22048023D01*
X9764937Y-49248000D02*
X9764937Y-48994000D01*
%TO.N,/RX*%
X13320937Y-24102000D02*
X13320937Y-44930000D01*
X14844937Y-22578000D02*
X14844937Y-22099875D01*
X13320937Y-44930000D02*
X17638937Y-49248000D01*
X14844937Y-22578000D02*
X13320937Y-24102000D01*
%TO.N,/AD0*%
X5954937Y-53914000D02*
X7982937Y-51886000D01*
X7982937Y-51886000D02*
X7982937Y-49220000D01*
X5954937Y-57884000D02*
X5954937Y-53914000D01*
%TO.N,/GPIO4*%
X6208937Y-33754000D02*
X10780937Y-38326000D01*
X10780937Y-38326000D02*
X10780937Y-43660000D01*
X6602937Y-23920000D02*
X6208937Y-24314000D01*
X6602937Y-23920000D02*
X10282937Y-23920000D01*
X6208937Y-24314000D02*
X6208937Y-33754000D01*
%TO.N,/RST*%
X15098937Y-34516000D02*
X19670937Y-34516000D01*
X9256937Y-34516000D02*
X9362937Y-34410000D01*
X9362937Y-34410000D02*
X9362937Y-29440000D01*
D16*
%TO.N,Net-(BT1-+-Pad3)*%
X18167485Y-14694484D02*
X19942937Y-16469936D01*
X8942937Y-16469936D02*
X10718389Y-14694484D01*
X10718389Y-14694484D02*
X18167485Y-14694484D01*
%TD*%
%TA.AperFunction,Conductor*%
%TO.N,GND*%
G36*
X26824631Y-97538306D02*
G01*
X26842937Y-97582500D01*
X26842937Y-139365719D01*
X26836735Y-139392863D01*
X14480300Y-165021023D01*
X14444617Y-165052881D01*
X14396858Y-165050177D01*
X14367315Y-165020199D01*
X2468749Y-139392518D01*
X2462937Y-139366199D01*
X2462937Y-97582500D01*
X2481243Y-97538306D01*
X2525437Y-97520000D01*
X26780437Y-97520000D01*
X26824631Y-97538306D01*
G37*
%TD.AperFunction*%
%TD*%
M02*
