%TF.GenerationSoftware,KiCad,Pcbnew,7.0.2*%
%TF.CreationDate,2023-05-10T23:17:19+02:00*%
%TF.ProjectId,ESPlant-Board,4553506c-616e-4742-9d42-6f6172642e6b,rev?*%
%TF.SameCoordinates,PX76c48e7PY1665c4c*%
%TF.FileFunction,Soldermask,Top*%
%TF.FilePolarity,Negative*%
%FSLAX46Y46*%
G04 Gerber Fmt 4.6, Leading zero omitted, Abs format (unit mm)*
G04 Created by KiCad (PCBNEW 7.0.2) date 2023-05-10 23:17:19*
%MOMM*%
%LPD*%
G01*
G04 APERTURE LIST*
G04 Aperture macros list*
%AMRoundRect*
0 Rectangle with rounded corners*
0 $1 Rounding radius*
0 $2 $3 $4 $5 $6 $7 $8 $9 X,Y pos of 4 corners*
0 Add a 4 corners polygon primitive as box body*
4,1,4,$2,$3,$4,$5,$6,$7,$8,$9,$2,$3,0*
0 Add four circle primitives for the rounded corners*
1,1,$1+$1,$2,$3*
1,1,$1+$1,$4,$5*
1,1,$1+$1,$6,$7*
1,1,$1+$1,$8,$9*
0 Add four rect primitives between the rounded corners*
20,1,$1+$1,$2,$3,$4,$5,0*
20,1,$1+$1,$4,$5,$6,$7,0*
20,1,$1+$1,$6,$7,$8,$9,0*
20,1,$1+$1,$8,$9,$2,$3,0*%
G04 Aperture macros list end*
%ADD10RoundRect,0.140000X0.170000X-0.140000X0.170000X0.140000X-0.170000X0.140000X-0.170000X-0.140000X0*%
%ADD11RoundRect,0.243750X-0.456250X0.243750X-0.456250X-0.243750X0.456250X-0.243750X0.456250X0.243750X0*%
%ADD12R,1.000000X1.500000*%
%ADD13RoundRect,0.250000X-0.300000X-0.300000X0.300000X-0.300000X0.300000X0.300000X-0.300000X0.300000X0*%
%ADD14RoundRect,0.140000X0.140000X0.170000X-0.140000X0.170000X-0.140000X-0.170000X0.140000X-0.170000X0*%
%ADD15RoundRect,0.135000X0.185000X-0.135000X0.185000X0.135000X-0.185000X0.135000X-0.185000X-0.135000X0*%
%ADD16RoundRect,0.135000X-0.185000X0.135000X-0.185000X-0.135000X0.185000X-0.135000X0.185000X0.135000X0*%
%ADD17R,1.700000X1.700000*%
%ADD18O,1.700000X1.700000*%
%ADD19RoundRect,0.150000X0.587500X0.150000X-0.587500X0.150000X-0.587500X-0.150000X0.587500X-0.150000X0*%
%ADD20RoundRect,0.250000X-0.300000X0.300000X-0.300000X-0.300000X0.300000X-0.300000X0.300000X0.300000X0*%
%ADD21RoundRect,0.135000X0.135000X0.185000X-0.135000X0.185000X-0.135000X-0.185000X0.135000X-0.185000X0*%
%ADD22R,1.000000X2.500000*%
%ADD23R,1.800000X1.000000*%
%ADD24RoundRect,0.140000X-0.140000X-0.170000X0.140000X-0.170000X0.140000X0.170000X-0.140000X0.170000X0*%
%ADD25RoundRect,0.150000X0.150000X-0.587500X0.150000X0.587500X-0.150000X0.587500X-0.150000X-0.587500X0*%
G04 APERTURE END LIST*
D10*
%TO.C,C5*%
X4302937Y-23940000D03*
X4302937Y-22980000D03*
%TD*%
D11*
%TO.C,D4*%
X9822937Y-31280000D03*
X9822937Y-33155000D03*
%TD*%
D12*
%TO.C,SW1*%
X18153001Y-32060000D03*
X18153001Y-24060000D03*
X22652873Y-32060000D03*
X22652873Y-24060000D03*
%TD*%
D13*
%TO.C,D2*%
X12512937Y-60720000D03*
X15312937Y-60720000D03*
%TD*%
D14*
%TO.C,C3*%
X7997937Y-59154000D03*
X7037937Y-59154000D03*
%TD*%
D15*
%TO.C,R3*%
X10526937Y-55348000D03*
X10526937Y-54328000D03*
%TD*%
%TO.C,R6*%
X19942937Y-55344000D03*
X19942937Y-54324000D03*
%TD*%
D16*
%TO.C,R2*%
X16622937Y-31972000D03*
X16622937Y-32992000D03*
%TD*%
D17*
%TO.C,J2*%
X17182937Y-3440000D03*
D18*
X17182937Y-5980000D03*
X14642937Y-3440000D03*
X14642937Y-5980000D03*
X12102937Y-3440000D03*
X12102937Y-5980000D03*
%TD*%
D16*
%TO.C,R1*%
X13828937Y-33530000D03*
X13828937Y-34550000D03*
%TD*%
D19*
%TO.C,Q2*%
X7080437Y-32260000D03*
X7080437Y-30360000D03*
X5205437Y-31310000D03*
%TD*%
D20*
%TO.C,D3*%
X13042937Y-23440000D03*
X13042937Y-26240000D03*
%TD*%
D16*
%TO.C,R5*%
X7982937Y-54330000D03*
X7982937Y-55350000D03*
%TD*%
D15*
%TO.C,R8*%
X15722937Y-58364484D03*
X15722937Y-57344484D03*
%TD*%
D21*
%TO.C,R9*%
X13602937Y-28520000D03*
X12582937Y-28520000D03*
%TD*%
D15*
%TO.C,R4*%
X13066937Y-55348000D03*
X13066937Y-54328000D03*
%TD*%
D16*
%TO.C,R10*%
X4302937Y-25760000D03*
X4302937Y-26780000D03*
%TD*%
D21*
%TO.C,R7*%
X8007937Y-57884000D03*
X6987937Y-57884000D03*
%TD*%
D22*
%TO.C,U1*%
X19762937Y-36744968D03*
X17762937Y-36744968D03*
X15762937Y-36744968D03*
X13762937Y-36744968D03*
X11762937Y-36744968D03*
X9762937Y-36744968D03*
X7762937Y-36744968D03*
X5762937Y-36744968D03*
D23*
X4262937Y-39344968D03*
X4262937Y-41344968D03*
X4262937Y-43344968D03*
X4262937Y-45344968D03*
X4262937Y-47344968D03*
X4262937Y-49344968D03*
D22*
X5762937Y-51944968D03*
X7762937Y-51944968D03*
X9762937Y-51944968D03*
X11762937Y-51944968D03*
X13762937Y-51944968D03*
X15762937Y-51944968D03*
X17762937Y-51944968D03*
X19762937Y-51944968D03*
%TD*%
D24*
%TO.C,C1*%
X2462937Y-34500000D03*
X3422937Y-34500000D03*
%TD*%
D25*
%TO.C,Q1*%
X7952937Y-27635000D03*
X9852937Y-27635000D03*
X8902937Y-25760000D03*
%TD*%
D14*
%TO.C,C2*%
X3382937Y-60260000D03*
X2422937Y-60260000D03*
%TD*%
M02*
