# Created by FreeCAD <http://www.freecad.org>
v -1.700000 5.200000 -5.200000
v -4.700000 6.900000 -5.200000
v -4.700000 -56.700001 -5.200000
v -1.700000 -56.700001 -5.200000
v 23.700001 5.200000 -5.200000
v 23.700001 -56.700001 -5.200000
v 26.700001 -56.700001 -5.200000
v 26.700001 6.900000 -5.200000
v 26.700001 6.900000 -13.500000
v -4.700000 6.900000 -13.500000
v 26.700001 -56.700001 -13.500000
v -1.700000 -56.700001 -12.200000
v -2.700000 -56.700001 -9.700000
v -4.700000 -56.700001 -13.500000
v -1.700000 -56.700001 -9.700000
v -2.700000 -56.700001 -8.800000
v -1.700000 -56.700001 -7.800000
v 23.700001 -56.700001 -12.200000
v 24.700001 -56.700001 -9.700000
v 23.700001 -56.700001 -9.700000
v 24.700001 -56.700001 -8.800000
v 23.700001 -56.700001 -7.800000
v 23.700001 5.200000 -7.800000
v -2.700000 5.200000 -9.700000
v -1.700000 5.200000 -9.700000
v -2.700000 5.200000 -8.800000
v -1.700000 5.200000 -7.800000
v 23.700001 5.200000 -12.200000
v 23.700001 5.200000 -9.700000
v -1.700000 5.200000 -12.200000
v 24.700001 5.200000 -9.700000
v 24.700001 5.200000 -8.800000
v 24.700001 -55.099998 -8.800000
v 24.700001 -52.900002 -8.800000
v 24.700001 -55.099998 -9.700000
v 24.700001 -52.900002 -9.700000
v -2.700000 -55.099998 -9.700000
v -2.700000 -52.900002 -9.700000
v -2.700000 -55.099998 -8.800000
v -2.700000 -52.900002 -8.800000
v 24.700001 -55.099998 -8.700000
v 24.700001 -52.900002 -8.700000
v 25.200001 -55.099998 -8.700000
v 25.200001 -55.099998 -9.700000
v 25.200001 -52.900002 -9.700000
v -3.200000 -55.099998 -9.700000
v -3.200000 -52.900002 -9.700000
v -2.700000 -55.099998 -8.700000
v -3.200000 -55.099998 -8.700000
v -2.700000 -52.900002 -8.700000
v -3.200000 -52.900002 -8.700000
v 25.200001 -52.900002 -8.700000
vn 0.000000 0.000000 1.000000
vn 0.000000 0.000000 1.000000
vn 0.000000 0.000000 1.000000
vn 0.000000 0.000000 1.000000
vn 0.000000 0.000000 1.000000
vn 0.000000 0.000000 1.000000
vn 0.000000 1.000000 0.000000
vn 0.000000 1.000000 0.000000
vn 1.000000 0.000000 -0.000000
vn 1.000000 0.000000 0.000000
vn -0.000000 -1.000000 0.000000
vn 0.000000 -1.000000 0.000000
vn -0.000000 -1.000000 -0.000000
vn -0.000000 -1.000000 0.000000
vn 0.000000 -1.000000 0.000000
vn 0.000000 -1.000000 0.000000
vn 0.000000 -1.000000 0.000000
vn 0.000000 -1.000000 0.000000
vn 0.000000 -1.000000 0.000000
vn 0.000000 -1.000000 0.000000
vn 0.000000 -1.000000 0.000000
vn 0.000000 -1.000000 0.000000
vn 0.000000 -1.000000 0.000000
vn 0.000000 -1.000000 0.000000
vn -1.000000 0.000000 -0.000000
vn -1.000000 -0.000000 0.000000
vn 0.000000 -1.000000 0.000000
vn 0.000000 -1.000000 0.000000
vn 0.000000 -1.000000 0.000000
vn 0.000000 -1.000000 0.000000
vn 0.000000 -1.000000 0.000000
vn 0.000000 -1.000000 0.000000
vn 0.000000 -1.000000 0.000000
vn 0.000000 -1.000000 0.000000
vn 0.000000 -1.000000 0.000000
vn 0.000000 -1.000000 0.000000
vn 1.000000 0.000000 0.000000
vn 1.000000 0.000000 -0.000000
vn -1.000000 0.000000 -0.000000
vn -1.000000 -0.000000 0.000000
vn 0.000000 0.000000 -1.000000
vn 0.000000 0.000000 -1.000000
vn -0.707107 -0.000000 -0.707107
vn -0.707107 -0.000000 -0.707107
vn -0.707107 0.000000 -0.707107
vn -0.707107 0.000000 -0.707107
vn -1.000000 0.000000 0.000000
vn -1.000000 -0.000000 -0.000000
vn 0.000000 0.000000 1.000000
vn 0.000000 0.000000 1.000000
vn 0.000000 0.000000 1.000000
vn 0.000000 0.000000 1.000000
vn -1.000000 0.000000 -0.000000
vn -1.000000 -0.000000 0.000000
vn 0.000000 0.000000 1.000000
vn 0.000000 0.000000 1.000000
vn 1.000000 0.000000 -0.000000
vn 1.000000 0.000000 0.000000
vn 0.000000 0.000000 1.000000
vn 0.000000 0.000000 1.000000
vn 0.000000 0.000000 1.000000
vn 0.000000 -0.000000 1.000000
vn 1.000000 0.000000 -0.000000
vn 1.000000 0.000000 0.000000
vn 0.707107 0.000000 -0.707107
vn 0.707107 0.000000 -0.707107
vn 0.707107 0.000000 -0.707107
vn 0.707107 0.000000 -0.707107
vn 1.000000 0.000000 -0.000000
vn 1.000000 0.000000 0.000000
vn -1.000000 0.000000 -0.000000
vn -1.000000 -0.000000 0.000000
vn 1.000000 0.000000 0.000000
vn 1.000000 -0.000000 0.000000
vn 0.000000 1.000000 0.000000
vn 0.000000 1.000000 -0.000000
vn 0.000000 1.000000 0.000000
vn 0.000000 0.000000 1.000000
vn -0.000000 0.000000 1.000000
vn 0.000000 -0.000000 1.000000
vn 0.000000 0.000000 1.000000
vn 0.000000 1.000000 0.000000
vn 0.000000 1.000000 0.000000
vn 0.000000 1.000000 0.000000
vn -1.000000 0.000000 0.000000
vn -1.000000 0.000000 0.000000
vn 0.000000 -1.000000 0.000000
vn 0.000000 -1.000000 0.000000
vn 0.000000 -1.000000 0.000000
vn 0.000000 -1.000000 0.000000
vn 0.000000 -1.000000 0.000000
vn 0.000000 -1.000000 0.000000
vn 0.000000 0.000000 -1.000000
vn 0.000000 0.000000 -1.000000
vn -1.000000 0.000000 0.000000
vn -1.000000 0.000000 0.000000
vn 1.000000 0.000000 0.000000
vn 1.000000 -0.000000 0.000000
vn -0.000000 -0.000000 -1.000000
vn 0.000000 0.000000 -1.000000
f 1//1 2//1 3//1
f 1//2 3//2 4//2
f 5//3 6//3 7//3
f 8//4 1//4 5//4
f 8//5 2//5 1//5
f 8//6 5//6 7//6
f 8//7 9//7 10//7
f 8//8 10//8 2//8
f 9//9 8//9 7//9
f 9//10 7//10 11//10
f 12//11 13//11 14//11
f 12//12 15//12 13//12
f 16//13 3//13 13//13
f 13//14 3//14 14//14
f 16//15 17//15 3//15
f 17//16 4//16 3//16
f 18//17 19//17 20//17
f 11//18 19//18 18//18
f 19//19 7//19 21//19
f 21//20 7//20 22//20
f 22//21 7//21 6//21
f 11//22 7//22 19//22
f 14//23 11//23 18//23
f 14//24 18//24 12//24
f 5//25 23//25 22//25
f 5//26 22//26 6//26
f 24//27 25//27 26//27
f 25//28 27//28 26//28
f 28//29 29//29 30//29
f 30//30 29//30 25//30
f 29//31 23//31 25//31
f 25//32 23//32 27//32
f 31//33 32//33 29//33
f 29//34 32//34 23//34
f 27//35 5//35 1//35
f 23//36 5//36 27//36
f 1//37 4//37 17//37
f 27//38 1//38 17//38
f 2//39 10//39 14//39
f 2//40 14//40 3//40
f 10//41 9//41 11//41
f 10//42 11//42 14//42
f 33//43 21//43 22//43
f 34//44 33//44 22//44
f 23//45 32//45 34//45
f 22//46 23//46 34//46
f 35//47 19//47 21//47
f 33//48 35//48 21//48
f 35//49 20//49 19//49
f 36//50 20//50 35//50
f 31//51 29//51 36//51
f 29//52 20//52 36//52
f 29//53 28//53 18//53
f 29//54 18//54 20//54
f 28//55 30//55 12//55
f 28//56 12//56 18//56
f 30//57 25//57 15//57
f 30//58 15//58 12//58
f 37//59 13//59 15//59
f 38//60 37//60 15//60
f 25//61 24//61 38//61
f 15//62 25//62 38//62
f 37//63 39//63 16//63
f 37//64 16//64 13//64
f 39//65 17//65 16//65
f 40//66 17//66 39//66
f 26//67 27//67 40//67
f 27//68 17//68 40//68
f 24//69 26//69 40//69
f 24//70 40//70 38//70
f 32//71 31//71 36//71
f 32//72 36//72 34//72
f 41//73 33//73 34//73
f 41//74 34//74 42//74
f 33//75 41//75 43//75
f 44//76 33//76 43//76
f 35//77 33//77 44//77
f 36//78 35//78 44//78
f 36//79 44//79 45//79
f 37//80 38//80 46//80
f 46//81 38//81 47//81
f 48//82 39//82 49//82
f 39//83 46//83 49//83
f 39//84 37//84 46//84
f 39//85 48//85 40//85
f 40//86 48//86 50//86
f 38//87 40//87 47//87
f 47//88 40//88 51//88
f 40//89 50//89 51//89
f 34//90 36//90 45//90
f 34//91 45//91 52//91
f 42//92 34//92 52//92
f 41//93 42//93 52//93
f 41//94 52//94 43//94
f 45//95 43//95 52//95
f 44//96 43//96 45//96
f 49//97 46//97 47//97
f 49//98 47//98 51//98
f 50//99 48//99 51//99
f 51//100 48//100 49//100
