%TF.GenerationSoftware,KiCad,Pcbnew,7.0.2*%
%TF.CreationDate,2023-05-10T22:13:46+02:00*%
%TF.ProjectId,ESPlant-Board,4553506c-616e-4742-9d42-6f6172642e6b,rev?*%
%TF.SameCoordinates,PX76c48e7PY1665c4c*%
%TF.FileFunction,Legend,Top*%
%TF.FilePolarity,Positive*%
%FSLAX46Y46*%
G04 Gerber Fmt 4.6, Leading zero omitted, Abs format (unit mm)*
G04 Created by KiCad (PCBNEW 7.0.2) date 2023-05-10 22:13:46*
%MOMM*%
%LPD*%
G01*
G04 APERTURE LIST*
%ADD10C,0.213360*%
%ADD11C,0.304800*%
%ADD12C,0.150000*%
%ADD13C,0.254000*%
%ADD14C,0.059995*%
%ADD15C,0.120000*%
G04 APERTURE END LIST*
D10*
X15157511Y-117187017D02*
X13592871Y-117187017D01*
X15083005Y-117187017D02*
X15157511Y-117336030D01*
X15157511Y-117336030D02*
X15157511Y-117634057D01*
X15157511Y-117634057D02*
X15083005Y-117783070D01*
X15083005Y-117783070D02*
X15008498Y-117857577D01*
X15008498Y-117857577D02*
X14859485Y-117932084D01*
X14859485Y-117932084D02*
X14412445Y-117932084D01*
X14412445Y-117932084D02*
X14263431Y-117857577D01*
X14263431Y-117857577D02*
X14188925Y-117783070D01*
X14188925Y-117783070D02*
X14114418Y-117634057D01*
X14114418Y-117634057D02*
X14114418Y-117336030D01*
X14114418Y-117336030D02*
X14188925Y-117187017D01*
X15157511Y-119273204D02*
X14114418Y-119273204D01*
X15157511Y-118602644D02*
X14337938Y-118602644D01*
X14337938Y-118602644D02*
X14188925Y-118677151D01*
X14188925Y-118677151D02*
X14114418Y-118826164D01*
X14114418Y-118826164D02*
X14114418Y-119049684D01*
X14114418Y-119049684D02*
X14188925Y-119198697D01*
X14188925Y-119198697D02*
X14263431Y-119273204D01*
X15157511Y-119794751D02*
X15157511Y-120390804D01*
X15679058Y-120018271D02*
X14337938Y-120018271D01*
X14337938Y-120018271D02*
X14188925Y-120092778D01*
X14188925Y-120092778D02*
X14114418Y-120241791D01*
X14114418Y-120241791D02*
X14114418Y-120390804D01*
X15157511Y-121880938D02*
X15157511Y-122476991D01*
X15679058Y-122104458D02*
X14337938Y-122104458D01*
X14337938Y-122104458D02*
X14188925Y-122178965D01*
X14188925Y-122178965D02*
X14114418Y-122327978D01*
X14114418Y-122327978D02*
X14114418Y-122476991D01*
X14114418Y-122998538D02*
X15679058Y-122998538D01*
X14114418Y-123669098D02*
X14933991Y-123669098D01*
X14933991Y-123669098D02*
X15083005Y-123594591D01*
X15083005Y-123594591D02*
X15157511Y-123445578D01*
X15157511Y-123445578D02*
X15157511Y-123222058D01*
X15157511Y-123222058D02*
X15083005Y-123073045D01*
X15083005Y-123073045D02*
X15008498Y-122998538D01*
X14114418Y-124414165D02*
X15157511Y-124414165D01*
X15679058Y-124414165D02*
X15604551Y-124339658D01*
X15604551Y-124339658D02*
X15530045Y-124414165D01*
X15530045Y-124414165D02*
X15604551Y-124488672D01*
X15604551Y-124488672D02*
X15679058Y-124414165D01*
X15679058Y-124414165D02*
X15530045Y-124414165D01*
X14188925Y-125084725D02*
X14114418Y-125233739D01*
X14114418Y-125233739D02*
X14114418Y-125531765D01*
X14114418Y-125531765D02*
X14188925Y-125680779D01*
X14188925Y-125680779D02*
X14337938Y-125755285D01*
X14337938Y-125755285D02*
X14412445Y-125755285D01*
X14412445Y-125755285D02*
X14561458Y-125680779D01*
X14561458Y-125680779D02*
X14635965Y-125531765D01*
X14635965Y-125531765D02*
X14635965Y-125308245D01*
X14635965Y-125308245D02*
X14710471Y-125159232D01*
X14710471Y-125159232D02*
X14859485Y-125084725D01*
X14859485Y-125084725D02*
X14933991Y-125084725D01*
X14933991Y-125084725D02*
X15083005Y-125159232D01*
X15083005Y-125159232D02*
X15157511Y-125308245D01*
X15157511Y-125308245D02*
X15157511Y-125531765D01*
X15157511Y-125531765D02*
X15083005Y-125680779D01*
X15157511Y-127617952D02*
X13592871Y-127617952D01*
X15083005Y-127617952D02*
X15157511Y-127766965D01*
X15157511Y-127766965D02*
X15157511Y-128064992D01*
X15157511Y-128064992D02*
X15083005Y-128214005D01*
X15083005Y-128214005D02*
X15008498Y-128288512D01*
X15008498Y-128288512D02*
X14859485Y-128363019D01*
X14859485Y-128363019D02*
X14412445Y-128363019D01*
X14412445Y-128363019D02*
X14263431Y-128288512D01*
X14263431Y-128288512D02*
X14188925Y-128214005D01*
X14188925Y-128214005D02*
X14114418Y-128064992D01*
X14114418Y-128064992D02*
X14114418Y-127766965D01*
X14114418Y-127766965D02*
X14188925Y-127617952D01*
X14114418Y-129704139D02*
X14933991Y-129704139D01*
X14933991Y-129704139D02*
X15083005Y-129629632D01*
X15083005Y-129629632D02*
X15157511Y-129480619D01*
X15157511Y-129480619D02*
X15157511Y-129182592D01*
X15157511Y-129182592D02*
X15083005Y-129033579D01*
X14188925Y-129704139D02*
X14114418Y-129555126D01*
X14114418Y-129555126D02*
X14114418Y-129182592D01*
X14114418Y-129182592D02*
X14188925Y-129033579D01*
X14188925Y-129033579D02*
X14337938Y-128959072D01*
X14337938Y-128959072D02*
X14486951Y-128959072D01*
X14486951Y-128959072D02*
X14635965Y-129033579D01*
X14635965Y-129033579D02*
X14710471Y-129182592D01*
X14710471Y-129182592D02*
X14710471Y-129555126D01*
X14710471Y-129555126D02*
X14784978Y-129704139D01*
X14114418Y-130449206D02*
X15157511Y-130449206D01*
X14859485Y-130449206D02*
X15008498Y-130523713D01*
X15008498Y-130523713D02*
X15083005Y-130598219D01*
X15083005Y-130598219D02*
X15157511Y-130747233D01*
X15157511Y-130747233D02*
X15157511Y-130896246D01*
X15157511Y-131194273D02*
X15157511Y-131790326D01*
X15679058Y-131417793D02*
X14337938Y-131417793D01*
X14337938Y-131417793D02*
X14188925Y-131492300D01*
X14188925Y-131492300D02*
X14114418Y-131641313D01*
X14114418Y-131641313D02*
X14114418Y-131790326D01*
X15157511Y-133280460D02*
X15157511Y-133876513D01*
X15679058Y-133503980D02*
X14337938Y-133503980D01*
X14337938Y-133503980D02*
X14188925Y-133578487D01*
X14188925Y-133578487D02*
X14114418Y-133727500D01*
X14114418Y-133727500D02*
X14114418Y-133876513D01*
X14114418Y-134621580D02*
X14188925Y-134472567D01*
X14188925Y-134472567D02*
X14263431Y-134398060D01*
X14263431Y-134398060D02*
X14412445Y-134323553D01*
X14412445Y-134323553D02*
X14859485Y-134323553D01*
X14859485Y-134323553D02*
X15008498Y-134398060D01*
X15008498Y-134398060D02*
X15083005Y-134472567D01*
X15083005Y-134472567D02*
X15157511Y-134621580D01*
X15157511Y-134621580D02*
X15157511Y-134845100D01*
X15157511Y-134845100D02*
X15083005Y-134994113D01*
X15083005Y-134994113D02*
X15008498Y-135068620D01*
X15008498Y-135068620D02*
X14859485Y-135143127D01*
X14859485Y-135143127D02*
X14412445Y-135143127D01*
X14412445Y-135143127D02*
X14263431Y-135068620D01*
X14263431Y-135068620D02*
X14188925Y-134994113D01*
X14188925Y-134994113D02*
X14114418Y-134845100D01*
X14114418Y-134845100D02*
X14114418Y-134621580D01*
X14188925Y-136931287D02*
X14114418Y-137080301D01*
X14114418Y-137080301D02*
X14114418Y-137378327D01*
X14114418Y-137378327D02*
X14188925Y-137527341D01*
X14188925Y-137527341D02*
X14337938Y-137601847D01*
X14337938Y-137601847D02*
X14412445Y-137601847D01*
X14412445Y-137601847D02*
X14561458Y-137527341D01*
X14561458Y-137527341D02*
X14635965Y-137378327D01*
X14635965Y-137378327D02*
X14635965Y-137154807D01*
X14635965Y-137154807D02*
X14710471Y-137005794D01*
X14710471Y-137005794D02*
X14859485Y-136931287D01*
X14859485Y-136931287D02*
X14933991Y-136931287D01*
X14933991Y-136931287D02*
X15083005Y-137005794D01*
X15083005Y-137005794D02*
X15157511Y-137154807D01*
X15157511Y-137154807D02*
X15157511Y-137378327D01*
X15157511Y-137378327D02*
X15083005Y-137527341D01*
X14114418Y-138495927D02*
X14188925Y-138346914D01*
X14188925Y-138346914D02*
X14263431Y-138272407D01*
X14263431Y-138272407D02*
X14412445Y-138197900D01*
X14412445Y-138197900D02*
X14859485Y-138197900D01*
X14859485Y-138197900D02*
X15008498Y-138272407D01*
X15008498Y-138272407D02*
X15083005Y-138346914D01*
X15083005Y-138346914D02*
X15157511Y-138495927D01*
X15157511Y-138495927D02*
X15157511Y-138719447D01*
X15157511Y-138719447D02*
X15083005Y-138868460D01*
X15083005Y-138868460D02*
X15008498Y-138942967D01*
X15008498Y-138942967D02*
X14859485Y-139017474D01*
X14859485Y-139017474D02*
X14412445Y-139017474D01*
X14412445Y-139017474D02*
X14263431Y-138942967D01*
X14263431Y-138942967D02*
X14188925Y-138868460D01*
X14188925Y-138868460D02*
X14114418Y-138719447D01*
X14114418Y-138719447D02*
X14114418Y-138495927D01*
X14114418Y-139688034D02*
X15157511Y-139688034D01*
X15679058Y-139688034D02*
X15604551Y-139613527D01*
X15604551Y-139613527D02*
X15530045Y-139688034D01*
X15530045Y-139688034D02*
X15604551Y-139762541D01*
X15604551Y-139762541D02*
X15679058Y-139688034D01*
X15679058Y-139688034D02*
X15530045Y-139688034D01*
X14114418Y-140656621D02*
X14188925Y-140507608D01*
X14188925Y-140507608D02*
X14337938Y-140433101D01*
X14337938Y-140433101D02*
X15679058Y-140433101D01*
D11*
X14579937Y-103804484D02*
X15849937Y-105074484D01*
X14579937Y-146714484D02*
X14579937Y-153699484D01*
X14579937Y-111424484D02*
X14579937Y-103804484D01*
X14579937Y-153699484D02*
X13309937Y-152429484D01*
X14579937Y-153699484D02*
X15849937Y-152429484D01*
X14579937Y-103804484D02*
X13309937Y-105074484D01*
D12*
X11289032Y-498238D02*
X11193794Y-450619D01*
X11193794Y-450619D02*
X11050937Y-450619D01*
X11050937Y-450619D02*
X10908080Y-498238D01*
X10908080Y-498238D02*
X10812842Y-593476D01*
X10812842Y-593476D02*
X10765223Y-688714D01*
X10765223Y-688714D02*
X10717604Y-879190D01*
X10717604Y-879190D02*
X10717604Y-1022047D01*
X10717604Y-1022047D02*
X10765223Y-1212523D01*
X10765223Y-1212523D02*
X10812842Y-1307761D01*
X10812842Y-1307761D02*
X10908080Y-1403000D01*
X10908080Y-1403000D02*
X11050937Y-1450619D01*
X11050937Y-1450619D02*
X11146175Y-1450619D01*
X11146175Y-1450619D02*
X11289032Y-1403000D01*
X11289032Y-1403000D02*
X11336651Y-1355380D01*
X11336651Y-1355380D02*
X11336651Y-1022047D01*
X11336651Y-1022047D02*
X11146175Y-1022047D01*
X11765223Y-1450619D02*
X11765223Y-450619D01*
X11765223Y-450619D02*
X12336651Y-1450619D01*
X12336651Y-1450619D02*
X12336651Y-450619D01*
X12812842Y-1450619D02*
X12812842Y-450619D01*
X12812842Y-450619D02*
X13050937Y-450619D01*
X13050937Y-450619D02*
X13193794Y-498238D01*
X13193794Y-498238D02*
X13289032Y-593476D01*
X13289032Y-593476D02*
X13336651Y-688714D01*
X13336651Y-688714D02*
X13384270Y-879190D01*
X13384270Y-879190D02*
X13384270Y-1022047D01*
X13384270Y-1022047D02*
X13336651Y-1212523D01*
X13336651Y-1212523D02*
X13289032Y-1307761D01*
X13289032Y-1307761D02*
X13193794Y-1403000D01*
X13193794Y-1403000D02*
X13050937Y-1450619D01*
X13050937Y-1450619D02*
X12812842Y-1450619D01*
X14543318Y-450619D02*
X14638556Y-450619D01*
X14638556Y-450619D02*
X14733794Y-498238D01*
X14733794Y-498238D02*
X14781413Y-545857D01*
X14781413Y-545857D02*
X14829032Y-641095D01*
X14829032Y-641095D02*
X14876651Y-831571D01*
X14876651Y-831571D02*
X14876651Y-1069666D01*
X14876651Y-1069666D02*
X14829032Y-1260142D01*
X14829032Y-1260142D02*
X14781413Y-1355380D01*
X14781413Y-1355380D02*
X14733794Y-1403000D01*
X14733794Y-1403000D02*
X14638556Y-1450619D01*
X14638556Y-1450619D02*
X14543318Y-1450619D01*
X14543318Y-1450619D02*
X14448080Y-1403000D01*
X14448080Y-1403000D02*
X14400461Y-1355380D01*
X14400461Y-1355380D02*
X14352842Y-1260142D01*
X14352842Y-1260142D02*
X14305223Y-1069666D01*
X14305223Y-1069666D02*
X14305223Y-831571D01*
X14305223Y-831571D02*
X14352842Y-641095D01*
X14352842Y-641095D02*
X14400461Y-545857D01*
X14400461Y-545857D02*
X14448080Y-498238D01*
X14448080Y-498238D02*
X14543318Y-450619D01*
X15654747Y-450619D02*
X16273794Y-450619D01*
X16273794Y-450619D02*
X15940461Y-831571D01*
X15940461Y-831571D02*
X16083318Y-831571D01*
X16083318Y-831571D02*
X16178556Y-879190D01*
X16178556Y-879190D02*
X16226175Y-926809D01*
X16226175Y-926809D02*
X16273794Y-1022047D01*
X16273794Y-1022047D02*
X16273794Y-1260142D01*
X16273794Y-1260142D02*
X16226175Y-1355380D01*
X16226175Y-1355380D02*
X16178556Y-1403000D01*
X16178556Y-1403000D02*
X16083318Y-1450619D01*
X16083318Y-1450619D02*
X15797604Y-1450619D01*
X15797604Y-1450619D02*
X15702366Y-1403000D01*
X15702366Y-1403000D02*
X15654747Y-1355380D01*
X16702366Y-1355380D02*
X16749985Y-1403000D01*
X16749985Y-1403000D02*
X16702366Y-1450619D01*
X16702366Y-1450619D02*
X16654747Y-1403000D01*
X16654747Y-1403000D02*
X16702366Y-1355380D01*
X16702366Y-1355380D02*
X16702366Y-1450619D01*
X17083318Y-450619D02*
X17702365Y-450619D01*
X17702365Y-450619D02*
X17369032Y-831571D01*
X17369032Y-831571D02*
X17511889Y-831571D01*
X17511889Y-831571D02*
X17607127Y-879190D01*
X17607127Y-879190D02*
X17654746Y-926809D01*
X17654746Y-926809D02*
X17702365Y-1022047D01*
X17702365Y-1022047D02*
X17702365Y-1260142D01*
X17702365Y-1260142D02*
X17654746Y-1355380D01*
X17654746Y-1355380D02*
X17607127Y-1403000D01*
X17607127Y-1403000D02*
X17511889Y-1450619D01*
X17511889Y-1450619D02*
X17226175Y-1450619D01*
X17226175Y-1450619D02*
X17130937Y-1403000D01*
X17130937Y-1403000D02*
X17083318Y-1355380D01*
X17988080Y-450619D02*
X18321413Y-1450619D01*
X18321413Y-1450619D02*
X18654746Y-450619D01*
%TO.C,SW1*%
X25927937Y-29393332D02*
X25975556Y-29250475D01*
X25975556Y-29250475D02*
X25975556Y-29012380D01*
X25975556Y-29012380D02*
X25927937Y-28917142D01*
X25927937Y-28917142D02*
X25880317Y-28869523D01*
X25880317Y-28869523D02*
X25785079Y-28821904D01*
X25785079Y-28821904D02*
X25689841Y-28821904D01*
X25689841Y-28821904D02*
X25594603Y-28869523D01*
X25594603Y-28869523D02*
X25546984Y-28917142D01*
X25546984Y-28917142D02*
X25499365Y-29012380D01*
X25499365Y-29012380D02*
X25451746Y-29202856D01*
X25451746Y-29202856D02*
X25404127Y-29298094D01*
X25404127Y-29298094D02*
X25356508Y-29345713D01*
X25356508Y-29345713D02*
X25261270Y-29393332D01*
X25261270Y-29393332D02*
X25166032Y-29393332D01*
X25166032Y-29393332D02*
X25070794Y-29345713D01*
X25070794Y-29345713D02*
X25023175Y-29298094D01*
X25023175Y-29298094D02*
X24975556Y-29202856D01*
X24975556Y-29202856D02*
X24975556Y-28964761D01*
X24975556Y-28964761D02*
X25023175Y-28821904D01*
X24975556Y-28488570D02*
X25975556Y-28250475D01*
X25975556Y-28250475D02*
X25261270Y-28059999D01*
X25261270Y-28059999D02*
X25975556Y-27869523D01*
X25975556Y-27869523D02*
X24975556Y-27631428D01*
X25975556Y-26726666D02*
X25975556Y-27298094D01*
X25975556Y-27012380D02*
X24975556Y-27012380D01*
X24975556Y-27012380D02*
X25118413Y-27107618D01*
X25118413Y-27107618D02*
X25213651Y-27202856D01*
X25213651Y-27202856D02*
X25261270Y-27298094D01*
%TO.C,R10*%
X3623556Y-26776857D02*
X3147365Y-27110190D01*
X3623556Y-27348285D02*
X2623556Y-27348285D01*
X2623556Y-27348285D02*
X2623556Y-26967333D01*
X2623556Y-26967333D02*
X2671175Y-26872095D01*
X2671175Y-26872095D02*
X2718794Y-26824476D01*
X2718794Y-26824476D02*
X2814032Y-26776857D01*
X2814032Y-26776857D02*
X2956889Y-26776857D01*
X2956889Y-26776857D02*
X3052127Y-26824476D01*
X3052127Y-26824476D02*
X3099746Y-26872095D01*
X3099746Y-26872095D02*
X3147365Y-26967333D01*
X3147365Y-26967333D02*
X3147365Y-27348285D01*
X3623556Y-25824476D02*
X3623556Y-26395904D01*
X3623556Y-26110190D02*
X2623556Y-26110190D01*
X2623556Y-26110190D02*
X2766413Y-26205428D01*
X2766413Y-26205428D02*
X2861651Y-26300666D01*
X2861651Y-26300666D02*
X2909270Y-26395904D01*
X2623556Y-25205428D02*
X2623556Y-25110190D01*
X2623556Y-25110190D02*
X2671175Y-25014952D01*
X2671175Y-25014952D02*
X2718794Y-24967333D01*
X2718794Y-24967333D02*
X2814032Y-24919714D01*
X2814032Y-24919714D02*
X3004508Y-24872095D01*
X3004508Y-24872095D02*
X3242603Y-24872095D01*
X3242603Y-24872095D02*
X3433079Y-24919714D01*
X3433079Y-24919714D02*
X3528317Y-24967333D01*
X3528317Y-24967333D02*
X3575937Y-25014952D01*
X3575937Y-25014952D02*
X3623556Y-25110190D01*
X3623556Y-25110190D02*
X3623556Y-25205428D01*
X3623556Y-25205428D02*
X3575937Y-25300666D01*
X3575937Y-25300666D02*
X3528317Y-25348285D01*
X3528317Y-25348285D02*
X3433079Y-25395904D01*
X3433079Y-25395904D02*
X3242603Y-25443523D01*
X3242603Y-25443523D02*
X3004508Y-25443523D01*
X3004508Y-25443523D02*
X2814032Y-25395904D01*
X2814032Y-25395904D02*
X2718794Y-25348285D01*
X2718794Y-25348285D02*
X2671175Y-25300666D01*
X2671175Y-25300666D02*
X2623556Y-25205428D01*
%TO.C,R9*%
X12926270Y-30152619D02*
X12592937Y-29676428D01*
X12354842Y-30152619D02*
X12354842Y-29152619D01*
X12354842Y-29152619D02*
X12735794Y-29152619D01*
X12735794Y-29152619D02*
X12831032Y-29200238D01*
X12831032Y-29200238D02*
X12878651Y-29247857D01*
X12878651Y-29247857D02*
X12926270Y-29343095D01*
X12926270Y-29343095D02*
X12926270Y-29485952D01*
X12926270Y-29485952D02*
X12878651Y-29581190D01*
X12878651Y-29581190D02*
X12831032Y-29628809D01*
X12831032Y-29628809D02*
X12735794Y-29676428D01*
X12735794Y-29676428D02*
X12354842Y-29676428D01*
X13402461Y-30152619D02*
X13592937Y-30152619D01*
X13592937Y-30152619D02*
X13688175Y-30105000D01*
X13688175Y-30105000D02*
X13735794Y-30057380D01*
X13735794Y-30057380D02*
X13831032Y-29914523D01*
X13831032Y-29914523D02*
X13878651Y-29724047D01*
X13878651Y-29724047D02*
X13878651Y-29343095D01*
X13878651Y-29343095D02*
X13831032Y-29247857D01*
X13831032Y-29247857D02*
X13783413Y-29200238D01*
X13783413Y-29200238D02*
X13688175Y-29152619D01*
X13688175Y-29152619D02*
X13497699Y-29152619D01*
X13497699Y-29152619D02*
X13402461Y-29200238D01*
X13402461Y-29200238D02*
X13354842Y-29247857D01*
X13354842Y-29247857D02*
X13307223Y-29343095D01*
X13307223Y-29343095D02*
X13307223Y-29581190D01*
X13307223Y-29581190D02*
X13354842Y-29676428D01*
X13354842Y-29676428D02*
X13402461Y-29724047D01*
X13402461Y-29724047D02*
X13497699Y-29771666D01*
X13497699Y-29771666D02*
X13688175Y-29771666D01*
X13688175Y-29771666D02*
X13783413Y-29724047D01*
X13783413Y-29724047D02*
X13831032Y-29676428D01*
X13831032Y-29676428D02*
X13878651Y-29581190D01*
%TO.C,R8*%
X17677556Y-58021150D02*
X17201365Y-58354483D01*
X17677556Y-58592578D02*
X16677556Y-58592578D01*
X16677556Y-58592578D02*
X16677556Y-58211626D01*
X16677556Y-58211626D02*
X16725175Y-58116388D01*
X16725175Y-58116388D02*
X16772794Y-58068769D01*
X16772794Y-58068769D02*
X16868032Y-58021150D01*
X16868032Y-58021150D02*
X17010889Y-58021150D01*
X17010889Y-58021150D02*
X17106127Y-58068769D01*
X17106127Y-58068769D02*
X17153746Y-58116388D01*
X17153746Y-58116388D02*
X17201365Y-58211626D01*
X17201365Y-58211626D02*
X17201365Y-58592578D01*
X17106127Y-57449721D02*
X17058508Y-57544959D01*
X17058508Y-57544959D02*
X17010889Y-57592578D01*
X17010889Y-57592578D02*
X16915651Y-57640197D01*
X16915651Y-57640197D02*
X16868032Y-57640197D01*
X16868032Y-57640197D02*
X16772794Y-57592578D01*
X16772794Y-57592578D02*
X16725175Y-57544959D01*
X16725175Y-57544959D02*
X16677556Y-57449721D01*
X16677556Y-57449721D02*
X16677556Y-57259245D01*
X16677556Y-57259245D02*
X16725175Y-57164007D01*
X16725175Y-57164007D02*
X16772794Y-57116388D01*
X16772794Y-57116388D02*
X16868032Y-57068769D01*
X16868032Y-57068769D02*
X16915651Y-57068769D01*
X16915651Y-57068769D02*
X17010889Y-57116388D01*
X17010889Y-57116388D02*
X17058508Y-57164007D01*
X17058508Y-57164007D02*
X17106127Y-57259245D01*
X17106127Y-57259245D02*
X17106127Y-57449721D01*
X17106127Y-57449721D02*
X17153746Y-57544959D01*
X17153746Y-57544959D02*
X17201365Y-57592578D01*
X17201365Y-57592578D02*
X17296603Y-57640197D01*
X17296603Y-57640197D02*
X17487079Y-57640197D01*
X17487079Y-57640197D02*
X17582317Y-57592578D01*
X17582317Y-57592578D02*
X17629937Y-57544959D01*
X17629937Y-57544959D02*
X17677556Y-57449721D01*
X17677556Y-57449721D02*
X17677556Y-57259245D01*
X17677556Y-57259245D02*
X17629937Y-57164007D01*
X17629937Y-57164007D02*
X17582317Y-57116388D01*
X17582317Y-57116388D02*
X17487079Y-57068769D01*
X17487079Y-57068769D02*
X17296603Y-57068769D01*
X17296603Y-57068769D02*
X17201365Y-57116388D01*
X17201365Y-57116388D02*
X17153746Y-57164007D01*
X17153746Y-57164007D02*
X17106127Y-57259245D01*
%TO.C,R7*%
X7312270Y-57076619D02*
X6978937Y-56600428D01*
X6740842Y-57076619D02*
X6740842Y-56076619D01*
X6740842Y-56076619D02*
X7121794Y-56076619D01*
X7121794Y-56076619D02*
X7217032Y-56124238D01*
X7217032Y-56124238D02*
X7264651Y-56171857D01*
X7264651Y-56171857D02*
X7312270Y-56267095D01*
X7312270Y-56267095D02*
X7312270Y-56409952D01*
X7312270Y-56409952D02*
X7264651Y-56505190D01*
X7264651Y-56505190D02*
X7217032Y-56552809D01*
X7217032Y-56552809D02*
X7121794Y-56600428D01*
X7121794Y-56600428D02*
X6740842Y-56600428D01*
X7645604Y-56076619D02*
X8312270Y-56076619D01*
X8312270Y-56076619D02*
X7883699Y-57076619D01*
%TO.C,R6*%
X19235556Y-55000666D02*
X18759365Y-55333999D01*
X19235556Y-55572094D02*
X18235556Y-55572094D01*
X18235556Y-55572094D02*
X18235556Y-55191142D01*
X18235556Y-55191142D02*
X18283175Y-55095904D01*
X18283175Y-55095904D02*
X18330794Y-55048285D01*
X18330794Y-55048285D02*
X18426032Y-55000666D01*
X18426032Y-55000666D02*
X18568889Y-55000666D01*
X18568889Y-55000666D02*
X18664127Y-55048285D01*
X18664127Y-55048285D02*
X18711746Y-55095904D01*
X18711746Y-55095904D02*
X18759365Y-55191142D01*
X18759365Y-55191142D02*
X18759365Y-55572094D01*
X18235556Y-54143523D02*
X18235556Y-54333999D01*
X18235556Y-54333999D02*
X18283175Y-54429237D01*
X18283175Y-54429237D02*
X18330794Y-54476856D01*
X18330794Y-54476856D02*
X18473651Y-54572094D01*
X18473651Y-54572094D02*
X18664127Y-54619713D01*
X18664127Y-54619713D02*
X19045079Y-54619713D01*
X19045079Y-54619713D02*
X19140317Y-54572094D01*
X19140317Y-54572094D02*
X19187937Y-54524475D01*
X19187937Y-54524475D02*
X19235556Y-54429237D01*
X19235556Y-54429237D02*
X19235556Y-54238761D01*
X19235556Y-54238761D02*
X19187937Y-54143523D01*
X19187937Y-54143523D02*
X19140317Y-54095904D01*
X19140317Y-54095904D02*
X19045079Y-54048285D01*
X19045079Y-54048285D02*
X18806984Y-54048285D01*
X18806984Y-54048285D02*
X18711746Y-54095904D01*
X18711746Y-54095904D02*
X18664127Y-54143523D01*
X18664127Y-54143523D02*
X18616508Y-54238761D01*
X18616508Y-54238761D02*
X18616508Y-54429237D01*
X18616508Y-54429237D02*
X18664127Y-54524475D01*
X18664127Y-54524475D02*
X18711746Y-54572094D01*
X18711746Y-54572094D02*
X18806984Y-54619713D01*
%TO.C,R5*%
X7179556Y-55002666D02*
X6703365Y-55335999D01*
X7179556Y-55574094D02*
X6179556Y-55574094D01*
X6179556Y-55574094D02*
X6179556Y-55193142D01*
X6179556Y-55193142D02*
X6227175Y-55097904D01*
X6227175Y-55097904D02*
X6274794Y-55050285D01*
X6274794Y-55050285D02*
X6370032Y-55002666D01*
X6370032Y-55002666D02*
X6512889Y-55002666D01*
X6512889Y-55002666D02*
X6608127Y-55050285D01*
X6608127Y-55050285D02*
X6655746Y-55097904D01*
X6655746Y-55097904D02*
X6703365Y-55193142D01*
X6703365Y-55193142D02*
X6703365Y-55574094D01*
X6179556Y-54097904D02*
X6179556Y-54574094D01*
X6179556Y-54574094D02*
X6655746Y-54621713D01*
X6655746Y-54621713D02*
X6608127Y-54574094D01*
X6608127Y-54574094D02*
X6560508Y-54478856D01*
X6560508Y-54478856D02*
X6560508Y-54240761D01*
X6560508Y-54240761D02*
X6608127Y-54145523D01*
X6608127Y-54145523D02*
X6655746Y-54097904D01*
X6655746Y-54097904D02*
X6750984Y-54050285D01*
X6750984Y-54050285D02*
X6989079Y-54050285D01*
X6989079Y-54050285D02*
X7084317Y-54097904D01*
X7084317Y-54097904D02*
X7131937Y-54145523D01*
X7131937Y-54145523D02*
X7179556Y-54240761D01*
X7179556Y-54240761D02*
X7179556Y-54478856D01*
X7179556Y-54478856D02*
X7131937Y-54574094D01*
X7131937Y-54574094D02*
X7084317Y-54621713D01*
%TO.C,R4*%
X12259556Y-55002666D02*
X11783365Y-55335999D01*
X12259556Y-55574094D02*
X11259556Y-55574094D01*
X11259556Y-55574094D02*
X11259556Y-55193142D01*
X11259556Y-55193142D02*
X11307175Y-55097904D01*
X11307175Y-55097904D02*
X11354794Y-55050285D01*
X11354794Y-55050285D02*
X11450032Y-55002666D01*
X11450032Y-55002666D02*
X11592889Y-55002666D01*
X11592889Y-55002666D02*
X11688127Y-55050285D01*
X11688127Y-55050285D02*
X11735746Y-55097904D01*
X11735746Y-55097904D02*
X11783365Y-55193142D01*
X11783365Y-55193142D02*
X11783365Y-55574094D01*
X11592889Y-54145523D02*
X12259556Y-54145523D01*
X11211937Y-54383618D02*
X11926222Y-54621713D01*
X11926222Y-54621713D02*
X11926222Y-54002666D01*
%TO.C,R3*%
X9719556Y-55002666D02*
X9243365Y-55335999D01*
X9719556Y-55574094D02*
X8719556Y-55574094D01*
X8719556Y-55574094D02*
X8719556Y-55193142D01*
X8719556Y-55193142D02*
X8767175Y-55097904D01*
X8767175Y-55097904D02*
X8814794Y-55050285D01*
X8814794Y-55050285D02*
X8910032Y-55002666D01*
X8910032Y-55002666D02*
X9052889Y-55002666D01*
X9052889Y-55002666D02*
X9148127Y-55050285D01*
X9148127Y-55050285D02*
X9195746Y-55097904D01*
X9195746Y-55097904D02*
X9243365Y-55193142D01*
X9243365Y-55193142D02*
X9243365Y-55574094D01*
X8719556Y-54669332D02*
X8719556Y-54050285D01*
X8719556Y-54050285D02*
X9100508Y-54383618D01*
X9100508Y-54383618D02*
X9100508Y-54240761D01*
X9100508Y-54240761D02*
X9148127Y-54145523D01*
X9148127Y-54145523D02*
X9195746Y-54097904D01*
X9195746Y-54097904D02*
X9290984Y-54050285D01*
X9290984Y-54050285D02*
X9529079Y-54050285D01*
X9529079Y-54050285D02*
X9624317Y-54097904D01*
X9624317Y-54097904D02*
X9671937Y-54145523D01*
X9671937Y-54145523D02*
X9719556Y-54240761D01*
X9719556Y-54240761D02*
X9719556Y-54526475D01*
X9719556Y-54526475D02*
X9671937Y-54621713D01*
X9671937Y-54621713D02*
X9624317Y-54669332D01*
%TO.C,R2*%
X15815556Y-32650666D02*
X15339365Y-32983999D01*
X15815556Y-33222094D02*
X14815556Y-33222094D01*
X14815556Y-33222094D02*
X14815556Y-32841142D01*
X14815556Y-32841142D02*
X14863175Y-32745904D01*
X14863175Y-32745904D02*
X14910794Y-32698285D01*
X14910794Y-32698285D02*
X15006032Y-32650666D01*
X15006032Y-32650666D02*
X15148889Y-32650666D01*
X15148889Y-32650666D02*
X15244127Y-32698285D01*
X15244127Y-32698285D02*
X15291746Y-32745904D01*
X15291746Y-32745904D02*
X15339365Y-32841142D01*
X15339365Y-32841142D02*
X15339365Y-33222094D01*
X14910794Y-32269713D02*
X14863175Y-32222094D01*
X14863175Y-32222094D02*
X14815556Y-32126856D01*
X14815556Y-32126856D02*
X14815556Y-31888761D01*
X14815556Y-31888761D02*
X14863175Y-31793523D01*
X14863175Y-31793523D02*
X14910794Y-31745904D01*
X14910794Y-31745904D02*
X15006032Y-31698285D01*
X15006032Y-31698285D02*
X15101270Y-31698285D01*
X15101270Y-31698285D02*
X15244127Y-31745904D01*
X15244127Y-31745904D02*
X15815556Y-32317332D01*
X15815556Y-32317332D02*
X15815556Y-31698285D01*
%TO.C,R1*%
X13021556Y-34174666D02*
X12545365Y-34507999D01*
X13021556Y-34746094D02*
X12021556Y-34746094D01*
X12021556Y-34746094D02*
X12021556Y-34365142D01*
X12021556Y-34365142D02*
X12069175Y-34269904D01*
X12069175Y-34269904D02*
X12116794Y-34222285D01*
X12116794Y-34222285D02*
X12212032Y-34174666D01*
X12212032Y-34174666D02*
X12354889Y-34174666D01*
X12354889Y-34174666D02*
X12450127Y-34222285D01*
X12450127Y-34222285D02*
X12497746Y-34269904D01*
X12497746Y-34269904D02*
X12545365Y-34365142D01*
X12545365Y-34365142D02*
X12545365Y-34746094D01*
X13021556Y-33222285D02*
X13021556Y-33793713D01*
X13021556Y-33507999D02*
X12021556Y-33507999D01*
X12021556Y-33507999D02*
X12164413Y-33603237D01*
X12164413Y-33603237D02*
X12259651Y-33698475D01*
X12259651Y-33698475D02*
X12307270Y-33793713D01*
%TO.C,Q2*%
X6047698Y-34267857D02*
X5952460Y-34220238D01*
X5952460Y-34220238D02*
X5857222Y-34125000D01*
X5857222Y-34125000D02*
X5714365Y-33982142D01*
X5714365Y-33982142D02*
X5619127Y-33934523D01*
X5619127Y-33934523D02*
X5523889Y-33934523D01*
X5571508Y-34172619D02*
X5476270Y-34125000D01*
X5476270Y-34125000D02*
X5381032Y-34029761D01*
X5381032Y-34029761D02*
X5333413Y-33839285D01*
X5333413Y-33839285D02*
X5333413Y-33505952D01*
X5333413Y-33505952D02*
X5381032Y-33315476D01*
X5381032Y-33315476D02*
X5476270Y-33220238D01*
X5476270Y-33220238D02*
X5571508Y-33172619D01*
X5571508Y-33172619D02*
X5761984Y-33172619D01*
X5761984Y-33172619D02*
X5857222Y-33220238D01*
X5857222Y-33220238D02*
X5952460Y-33315476D01*
X5952460Y-33315476D02*
X6000079Y-33505952D01*
X6000079Y-33505952D02*
X6000079Y-33839285D01*
X6000079Y-33839285D02*
X5952460Y-34029761D01*
X5952460Y-34029761D02*
X5857222Y-34125000D01*
X5857222Y-34125000D02*
X5761984Y-34172619D01*
X5761984Y-34172619D02*
X5571508Y-34172619D01*
X6381032Y-33267857D02*
X6428651Y-33220238D01*
X6428651Y-33220238D02*
X6523889Y-33172619D01*
X6523889Y-33172619D02*
X6761984Y-33172619D01*
X6761984Y-33172619D02*
X6857222Y-33220238D01*
X6857222Y-33220238D02*
X6904841Y-33267857D01*
X6904841Y-33267857D02*
X6952460Y-33363095D01*
X6952460Y-33363095D02*
X6952460Y-33458333D01*
X6952460Y-33458333D02*
X6904841Y-33601190D01*
X6904841Y-33601190D02*
X6333413Y-34172619D01*
X6333413Y-34172619D02*
X6952460Y-34172619D01*
%TO.C,Q1*%
X7060794Y-26792738D02*
X7013175Y-26887976D01*
X7013175Y-26887976D02*
X6917937Y-26983214D01*
X6917937Y-26983214D02*
X6775079Y-27126071D01*
X6775079Y-27126071D02*
X6727460Y-27221309D01*
X6727460Y-27221309D02*
X6727460Y-27316547D01*
X6965556Y-27268928D02*
X6917937Y-27364166D01*
X6917937Y-27364166D02*
X6822698Y-27459404D01*
X6822698Y-27459404D02*
X6632222Y-27507023D01*
X6632222Y-27507023D02*
X6298889Y-27507023D01*
X6298889Y-27507023D02*
X6108413Y-27459404D01*
X6108413Y-27459404D02*
X6013175Y-27364166D01*
X6013175Y-27364166D02*
X5965556Y-27268928D01*
X5965556Y-27268928D02*
X5965556Y-27078452D01*
X5965556Y-27078452D02*
X6013175Y-26983214D01*
X6013175Y-26983214D02*
X6108413Y-26887976D01*
X6108413Y-26887976D02*
X6298889Y-26840357D01*
X6298889Y-26840357D02*
X6632222Y-26840357D01*
X6632222Y-26840357D02*
X6822698Y-26887976D01*
X6822698Y-26887976D02*
X6917937Y-26983214D01*
X6917937Y-26983214D02*
X6965556Y-27078452D01*
X6965556Y-27078452D02*
X6965556Y-27268928D01*
X6965556Y-25887976D02*
X6965556Y-26459404D01*
X6965556Y-26173690D02*
X5965556Y-26173690D01*
X5965556Y-26173690D02*
X6108413Y-26268928D01*
X6108413Y-26268928D02*
X6203651Y-26364166D01*
X6203651Y-26364166D02*
X6251270Y-26459404D01*
%TO.C,D4*%
X12259556Y-32206094D02*
X11259556Y-32206094D01*
X11259556Y-32206094D02*
X11259556Y-31967999D01*
X11259556Y-31967999D02*
X11307175Y-31825142D01*
X11307175Y-31825142D02*
X11402413Y-31729904D01*
X11402413Y-31729904D02*
X11497651Y-31682285D01*
X11497651Y-31682285D02*
X11688127Y-31634666D01*
X11688127Y-31634666D02*
X11830984Y-31634666D01*
X11830984Y-31634666D02*
X12021460Y-31682285D01*
X12021460Y-31682285D02*
X12116698Y-31729904D01*
X12116698Y-31729904D02*
X12211937Y-31825142D01*
X12211937Y-31825142D02*
X12259556Y-31967999D01*
X12259556Y-31967999D02*
X12259556Y-32206094D01*
X11592889Y-30777523D02*
X12259556Y-30777523D01*
X11211937Y-31015618D02*
X11926222Y-31253713D01*
X11926222Y-31253713D02*
X11926222Y-30634666D01*
%TO.C,D3*%
X15410556Y-25451094D02*
X14410556Y-25451094D01*
X14410556Y-25451094D02*
X14410556Y-25212999D01*
X14410556Y-25212999D02*
X14458175Y-25070142D01*
X14458175Y-25070142D02*
X14553413Y-24974904D01*
X14553413Y-24974904D02*
X14648651Y-24927285D01*
X14648651Y-24927285D02*
X14839127Y-24879666D01*
X14839127Y-24879666D02*
X14981984Y-24879666D01*
X14981984Y-24879666D02*
X15172460Y-24927285D01*
X15172460Y-24927285D02*
X15267698Y-24974904D01*
X15267698Y-24974904D02*
X15362937Y-25070142D01*
X15362937Y-25070142D02*
X15410556Y-25212999D01*
X15410556Y-25212999D02*
X15410556Y-25451094D01*
X14410556Y-24546332D02*
X14410556Y-23927285D01*
X14410556Y-23927285D02*
X14791508Y-24260618D01*
X14791508Y-24260618D02*
X14791508Y-24117761D01*
X14791508Y-24117761D02*
X14839127Y-24022523D01*
X14839127Y-24022523D02*
X14886746Y-23974904D01*
X14886746Y-23974904D02*
X14981984Y-23927285D01*
X14981984Y-23927285D02*
X15220079Y-23927285D01*
X15220079Y-23927285D02*
X15315317Y-23974904D01*
X15315317Y-23974904D02*
X15362937Y-24022523D01*
X15362937Y-24022523D02*
X15410556Y-24117761D01*
X15410556Y-24117761D02*
X15410556Y-24403475D01*
X15410556Y-24403475D02*
X15362937Y-24498713D01*
X15362937Y-24498713D02*
X15315317Y-24546332D01*
%TO.C,D2*%
X13047842Y-59277619D02*
X13047842Y-58277619D01*
X13047842Y-58277619D02*
X13285937Y-58277619D01*
X13285937Y-58277619D02*
X13428794Y-58325238D01*
X13428794Y-58325238D02*
X13524032Y-58420476D01*
X13524032Y-58420476D02*
X13571651Y-58515714D01*
X13571651Y-58515714D02*
X13619270Y-58706190D01*
X13619270Y-58706190D02*
X13619270Y-58849047D01*
X13619270Y-58849047D02*
X13571651Y-59039523D01*
X13571651Y-59039523D02*
X13524032Y-59134761D01*
X13524032Y-59134761D02*
X13428794Y-59230000D01*
X13428794Y-59230000D02*
X13285937Y-59277619D01*
X13285937Y-59277619D02*
X13047842Y-59277619D01*
X14000223Y-58372857D02*
X14047842Y-58325238D01*
X14047842Y-58325238D02*
X14143080Y-58277619D01*
X14143080Y-58277619D02*
X14381175Y-58277619D01*
X14381175Y-58277619D02*
X14476413Y-58325238D01*
X14476413Y-58325238D02*
X14524032Y-58372857D01*
X14524032Y-58372857D02*
X14571651Y-58468095D01*
X14571651Y-58468095D02*
X14571651Y-58563333D01*
X14571651Y-58563333D02*
X14524032Y-58706190D01*
X14524032Y-58706190D02*
X13952604Y-59277619D01*
X13952604Y-59277619D02*
X14571651Y-59277619D01*
%TO.C,C5*%
X3510317Y-23626666D02*
X3557937Y-23674285D01*
X3557937Y-23674285D02*
X3605556Y-23817142D01*
X3605556Y-23817142D02*
X3605556Y-23912380D01*
X3605556Y-23912380D02*
X3557937Y-24055237D01*
X3557937Y-24055237D02*
X3462698Y-24150475D01*
X3462698Y-24150475D02*
X3367460Y-24198094D01*
X3367460Y-24198094D02*
X3176984Y-24245713D01*
X3176984Y-24245713D02*
X3034127Y-24245713D01*
X3034127Y-24245713D02*
X2843651Y-24198094D01*
X2843651Y-24198094D02*
X2748413Y-24150475D01*
X2748413Y-24150475D02*
X2653175Y-24055237D01*
X2653175Y-24055237D02*
X2605556Y-23912380D01*
X2605556Y-23912380D02*
X2605556Y-23817142D01*
X2605556Y-23817142D02*
X2653175Y-23674285D01*
X2653175Y-23674285D02*
X2700794Y-23626666D01*
X2605556Y-22721904D02*
X2605556Y-23198094D01*
X2605556Y-23198094D02*
X3081746Y-23245713D01*
X3081746Y-23245713D02*
X3034127Y-23198094D01*
X3034127Y-23198094D02*
X2986508Y-23102856D01*
X2986508Y-23102856D02*
X2986508Y-22864761D01*
X2986508Y-22864761D02*
X3034127Y-22769523D01*
X3034127Y-22769523D02*
X3081746Y-22721904D01*
X3081746Y-22721904D02*
X3176984Y-22674285D01*
X3176984Y-22674285D02*
X3415079Y-22674285D01*
X3415079Y-22674285D02*
X3510317Y-22721904D01*
X3510317Y-22721904D02*
X3557937Y-22769523D01*
X3557937Y-22769523D02*
X3605556Y-22864761D01*
X3605556Y-22864761D02*
X3605556Y-23102856D01*
X3605556Y-23102856D02*
X3557937Y-23198094D01*
X3557937Y-23198094D02*
X3510317Y-23245713D01*
%TO.C,C3*%
X5280270Y-59674380D02*
X5232651Y-59722000D01*
X5232651Y-59722000D02*
X5089794Y-59769619D01*
X5089794Y-59769619D02*
X4994556Y-59769619D01*
X4994556Y-59769619D02*
X4851699Y-59722000D01*
X4851699Y-59722000D02*
X4756461Y-59626761D01*
X4756461Y-59626761D02*
X4708842Y-59531523D01*
X4708842Y-59531523D02*
X4661223Y-59341047D01*
X4661223Y-59341047D02*
X4661223Y-59198190D01*
X4661223Y-59198190D02*
X4708842Y-59007714D01*
X4708842Y-59007714D02*
X4756461Y-58912476D01*
X4756461Y-58912476D02*
X4851699Y-58817238D01*
X4851699Y-58817238D02*
X4994556Y-58769619D01*
X4994556Y-58769619D02*
X5089794Y-58769619D01*
X5089794Y-58769619D02*
X5232651Y-58817238D01*
X5232651Y-58817238D02*
X5280270Y-58864857D01*
X5613604Y-58769619D02*
X6232651Y-58769619D01*
X6232651Y-58769619D02*
X5899318Y-59150571D01*
X5899318Y-59150571D02*
X6042175Y-59150571D01*
X6042175Y-59150571D02*
X6137413Y-59198190D01*
X6137413Y-59198190D02*
X6185032Y-59245809D01*
X6185032Y-59245809D02*
X6232651Y-59341047D01*
X6232651Y-59341047D02*
X6232651Y-59579142D01*
X6232651Y-59579142D02*
X6185032Y-59674380D01*
X6185032Y-59674380D02*
X6137413Y-59722000D01*
X6137413Y-59722000D02*
X6042175Y-59769619D01*
X6042175Y-59769619D02*
X5756461Y-59769619D01*
X5756461Y-59769619D02*
X5661223Y-59722000D01*
X5661223Y-59722000D02*
X5613604Y-59674380D01*
%TO.C,C2*%
X2736270Y-59521380D02*
X2688651Y-59569000D01*
X2688651Y-59569000D02*
X2545794Y-59616619D01*
X2545794Y-59616619D02*
X2450556Y-59616619D01*
X2450556Y-59616619D02*
X2307699Y-59569000D01*
X2307699Y-59569000D02*
X2212461Y-59473761D01*
X2212461Y-59473761D02*
X2164842Y-59378523D01*
X2164842Y-59378523D02*
X2117223Y-59188047D01*
X2117223Y-59188047D02*
X2117223Y-59045190D01*
X2117223Y-59045190D02*
X2164842Y-58854714D01*
X2164842Y-58854714D02*
X2212461Y-58759476D01*
X2212461Y-58759476D02*
X2307699Y-58664238D01*
X2307699Y-58664238D02*
X2450556Y-58616619D01*
X2450556Y-58616619D02*
X2545794Y-58616619D01*
X2545794Y-58616619D02*
X2688651Y-58664238D01*
X2688651Y-58664238D02*
X2736270Y-58711857D01*
X3117223Y-58711857D02*
X3164842Y-58664238D01*
X3164842Y-58664238D02*
X3260080Y-58616619D01*
X3260080Y-58616619D02*
X3498175Y-58616619D01*
X3498175Y-58616619D02*
X3593413Y-58664238D01*
X3593413Y-58664238D02*
X3641032Y-58711857D01*
X3641032Y-58711857D02*
X3688651Y-58807095D01*
X3688651Y-58807095D02*
X3688651Y-58902333D01*
X3688651Y-58902333D02*
X3641032Y-59045190D01*
X3641032Y-59045190D02*
X3069604Y-59616619D01*
X3069604Y-59616619D02*
X3688651Y-59616619D01*
%TO.C,C1*%
X2776270Y-33707380D02*
X2728651Y-33755000D01*
X2728651Y-33755000D02*
X2585794Y-33802619D01*
X2585794Y-33802619D02*
X2490556Y-33802619D01*
X2490556Y-33802619D02*
X2347699Y-33755000D01*
X2347699Y-33755000D02*
X2252461Y-33659761D01*
X2252461Y-33659761D02*
X2204842Y-33564523D01*
X2204842Y-33564523D02*
X2157223Y-33374047D01*
X2157223Y-33374047D02*
X2157223Y-33231190D01*
X2157223Y-33231190D02*
X2204842Y-33040714D01*
X2204842Y-33040714D02*
X2252461Y-32945476D01*
X2252461Y-32945476D02*
X2347699Y-32850238D01*
X2347699Y-32850238D02*
X2490556Y-32802619D01*
X2490556Y-32802619D02*
X2585794Y-32802619D01*
X2585794Y-32802619D02*
X2728651Y-32850238D01*
X2728651Y-32850238D02*
X2776270Y-32897857D01*
X3728651Y-33802619D02*
X3157223Y-33802619D01*
X3442937Y-33802619D02*
X3442937Y-32802619D01*
X3442937Y-32802619D02*
X3347699Y-32945476D01*
X3347699Y-32945476D02*
X3252461Y-33040714D01*
X3252461Y-33040714D02*
X3157223Y-33088333D01*
D13*
%TO.C,SW1*%
X17202937Y-31060000D02*
X17202937Y-25060000D01*
X23602937Y-31060000D02*
X17202937Y-31060000D01*
X23400295Y-29562870D02*
X23400295Y-26562870D01*
X23650308Y-29562870D02*
X23400295Y-29562870D01*
X17152569Y-29561041D02*
X17152569Y-26561041D01*
X17402581Y-29561041D02*
X17152569Y-29561041D01*
X23400295Y-26562870D02*
X23650308Y-26562870D01*
X23650308Y-26562870D02*
X23650308Y-29562870D01*
X17152569Y-26561041D02*
X17402581Y-26561041D01*
X17402581Y-26561041D02*
X17402581Y-29561041D01*
X17202937Y-25060000D02*
X23602937Y-25060000D01*
X23602937Y-25060000D02*
X23602937Y-31060000D01*
D14*
X17232934Y-32260000D02*
G75*
G03*
X17232934Y-32260000I-29997J0D01*
G01*
D13*
X22198975Y-28060000D02*
G75*
G03*
X22198975Y-28060000I-1796038J0D01*
G01*
D15*
%TO.C,U1*%
X4762937Y-52464968D02*
X4142937Y-52464968D01*
X4142937Y-38344968D02*
X4142937Y-36224968D01*
X20762937Y-36224968D02*
X20762937Y-35614968D01*
X4142937Y-52464968D02*
X4142937Y-50344968D01*
X28382937Y-36224968D02*
X28382937Y-52464968D01*
X20762937Y-36224968D02*
X28382937Y-36224968D01*
X28382937Y-52464968D02*
X20762937Y-52464968D01*
X4142937Y-36224968D02*
X4762937Y-36224968D01*
%TO.C,R10*%
X4682937Y-26116359D02*
X4682937Y-26423641D01*
X3922937Y-26116359D02*
X3922937Y-26423641D01*
%TO.C,R9*%
X13246578Y-28900000D02*
X12939296Y-28900000D01*
X13246578Y-28140000D02*
X12939296Y-28140000D01*
%TO.C,R8*%
X16102937Y-58008125D02*
X16102937Y-57700843D01*
X15342937Y-58008125D02*
X15342937Y-57700843D01*
%TO.C,R7*%
X7651578Y-57504000D02*
X7344296Y-57504000D01*
X7651578Y-58264000D02*
X7344296Y-58264000D01*
%TO.C,R6*%
X19562937Y-54987641D02*
X19562937Y-54680359D01*
X20322937Y-54987641D02*
X20322937Y-54680359D01*
%TO.C,R5*%
X7602937Y-54686359D02*
X7602937Y-54993641D01*
X8362937Y-54686359D02*
X8362937Y-54993641D01*
%TO.C,R4*%
X13446937Y-54991641D02*
X13446937Y-54684359D01*
X12686937Y-54991641D02*
X12686937Y-54684359D01*
%TO.C,R3*%
X10906937Y-54991641D02*
X10906937Y-54684359D01*
X10146937Y-54991641D02*
X10146937Y-54684359D01*
%TO.C,R2*%
X17002937Y-32328359D02*
X17002937Y-32635641D01*
X16242937Y-32328359D02*
X16242937Y-32635641D01*
%TO.C,R1*%
X14208937Y-33886359D02*
X14208937Y-34193641D01*
X13448937Y-33886359D02*
X13448937Y-34193641D01*
%TO.C,Q2*%
X6142937Y-32870000D02*
X5492937Y-32870000D01*
X6142937Y-29750000D02*
X5492937Y-29750000D01*
X6142937Y-32870000D02*
X7817937Y-32870000D01*
X6142937Y-29750000D02*
X6792937Y-29750000D01*
%TO.C,Q1*%
X7342937Y-26697500D02*
X7342937Y-26047500D01*
X10462937Y-26697500D02*
X10462937Y-26047500D01*
X7342937Y-26697500D02*
X7342937Y-28372500D01*
X10462937Y-26697500D02*
X10462937Y-27347500D01*
%TO.C,J2*%
X15912937Y-4710000D02*
X18512937Y-4710000D01*
X10772937Y-2110000D02*
X10772937Y-7310000D01*
X18512937Y-7310000D02*
X10772937Y-7310000D01*
X18512937Y-2110000D02*
X18512937Y-3440000D01*
X15912937Y-2110000D02*
X10772937Y-2110000D01*
X15912937Y-2110000D02*
X15912937Y-4710000D01*
X17182937Y-2110000D02*
X18512937Y-2110000D01*
X18512937Y-4710000D02*
X18512937Y-7310000D01*
%TO.C,D4*%
X8862937Y-30532500D02*
X8862937Y-33217500D01*
X10782937Y-30532500D02*
X8862937Y-30532500D01*
X10782937Y-33217500D02*
X10782937Y-30532500D01*
%TO.C,D3*%
X12042937Y-22630000D02*
X12042937Y-26490000D01*
X14042937Y-22630000D02*
X12042937Y-22630000D01*
X14042937Y-22630000D02*
X14042937Y-26490000D01*
%TO.C,D2*%
X11702937Y-59720000D02*
X15562937Y-59720000D01*
X11702937Y-59720000D02*
X11702937Y-61720000D01*
X11702937Y-61720000D02*
X15562937Y-61720000D01*
%TO.C,C5*%
X4662937Y-23567836D02*
X4662937Y-23352164D01*
X3942937Y-23567836D02*
X3942937Y-23352164D01*
%TO.C,C3*%
X7625773Y-59514000D02*
X7410101Y-59514000D01*
X7625773Y-58794000D02*
X7410101Y-58794000D01*
%TO.C,C2*%
X3010773Y-59900000D02*
X2795101Y-59900000D01*
X3010773Y-60620000D02*
X2795101Y-60620000D01*
%TO.C,C1*%
X2835101Y-34860000D02*
X3050773Y-34860000D01*
X2835101Y-34140000D02*
X3050773Y-34140000D01*
%TD*%
M02*
