# Blender v3.0.1 OBJ File: ''
# www.blender.org
mtllib ESPlant-Case2-CaseOver.mtl
o ESPlant-Case2-CaseOver
v -7.793929 -13.761384 24.797503
v -3.107940 -30.566748 25.333702
v 7.675269 -29.319284 26.356766
v 14.532867 -19.229977 20.531424
v -14.938253 -33.223812 17.653336
v -2.733631 -59.068798 33.959774
v 7.000898 11.388236 27.354090
v 19.149155 -30.717709 13.832587
v -19.436171 -55.024620 19.643770
v -22.227043 -0.520501 14.356153
v 8.240859 -60.500000 29.639601
v -2.156634 -60.500000 33.885441
v -15.434112 13.250167 24.651310
v 21.651995 13.554152 11.949814
v 13.685199 -60.500000 23.613714
v 23.064232 -31.407089 -2.686025
v -29.784725 -54.211060 -4.772322
v -32.151558 12.069145 -1.050851
v -3.422074 -60.500000 33.802135
v -19.501179 -60.500000 21.074104
v 18.472229 -60.500000 -17.302683
v 18.497547 -60.500000 -17.239721
v 18.413519 -60.500000 -17.345100
v 7.624806 -60.500000 -27.266901
v 0.444411 -60.500000 -31.024361
v 4.564157 -60.500000 -31.168089
v 13.250000 -60.500000 -13.672584
v 21.957319 -60.500000 -8.370922
v 14.500000 -60.500000 -10.050003
v 13.250000 -60.500000 -10.050003
v 14.500000 -60.500000 -7.550003
v 24.970995 -60.500000 -0.783536
v 16.750000 -60.500000 -4.672584
v 13.250000 -60.500000 -4.672584
v 13.250000 -60.500000 -7.550003
v 22.812939 -60.500000 8.453249
v 16.750000 -60.500000 8.827416
v 21.891403 -60.500000 15.192230
v -13.250000 -60.500000 -13.672584
v -12.379167 -60.500000 -28.183552
v -21.330229 -60.500000 -19.983353
v -13.250000 -60.500000 -10.050003
v -14.500000 -60.500000 -10.050003
v -13.250000 -60.500000 -7.550003
v -13.250000 -60.500000 -4.672584
v -14.500000 -60.500000 -7.550003
v -16.750000 -60.500000 -4.672584
v -29.859533 -60.500000 -6.894498
v -16.750000 -60.500000 8.827416
v -30.266689 -60.500000 -3.594407
v -21.168369 -60.500000 17.610191
v -1.970295 14.961809 -34.396732
v -23.995657 -32.315201 -2.531569
v 19.863779 -46.141769 -12.211441
v 14.742565 -45.358829 -24.858932
v 6.011805 -48.555008 -30.140430
v -12.583313 -30.979715 -22.905794
v 13.250000 10.500000 -4.672581
v 13.250000 8.500000 -7.550000
v 13.250000 8.500000 -10.050000
v 13.250000 10.500001 -13.672581
v -13.250000 10.500001 -13.672581
v -13.250000 8.500000 -10.050000
v -13.250000 8.500000 -7.550000
v -13.250000 10.500000 -4.672581
v -14.500000 8.500000 -10.050000
v -14.500000 8.500000 -7.550000
v -14.500000 -60.500000 -10.050003
v -14.500000 8.500000 -10.050000
v -14.500000 -60.500000 -7.550003
v -14.500000 8.500000 -7.550000
v -16.750000 10.500000 -4.672581
v -16.750000 10.500000 8.827419
v 16.750000 10.500000 8.827419
v 16.750000 10.500000 -4.672581
v 14.500000 8.500000 -7.550000
v 14.500000 -60.500000 -10.050003
v 14.500000 8.500000 -7.550000
v 14.500000 8.500000 -10.050000
v 14.500000 -60.500000 -7.550003
v -25.370655 11.685578 -26.473495
v 28.838120 15.311226 -7.243146
v 14.448992 -32.328068 -20.013805
v 0.135849 -31.407946 -28.534866
v -16.750000 10.500000 8.827419
v -16.750000 10.500000 -4.672581
v 16.750000 10.500000 -4.672581
v 16.750000 10.500000 8.827419
v -2.932902 -5.865736 -32.551331
v 15.717062 14.847970 -25.432446
v -7.301225 -13.656209 23.221638
v -2.582623 -30.724842 23.862459
v 7.073648 -29.573286 24.847166
v 13.366640 -19.246883 19.288361
v -13.747263 -33.302769 16.617506
v -2.507177 -59.321350 32.344265
v 6.404534 10.142370 25.585884
v 17.730198 -30.909828 13.173977
v -18.220575 -55.330341 18.732475
v -20.988529 -0.352028 13.463490
v 7.225890 -59.076187 28.173658
v -2.494208 -59.165646 32.346348
v -14.490492 11.862078 23.074581
v 20.267941 12.096054 11.004125
v 12.491673 -58.990788 22.503180
v 21.448988 -31.404716 -2.565259
v -28.160620 -54.548225 -4.648867
v -30.341759 10.849708 -1.245298
v -2.602205 -59.078247 32.111118
v -18.036043 -59.087776 19.836903
v 17.197632 -59.120552 -16.478470
v 17.042143 -59.001598 -16.661316
v 17.690506 -58.943035 -16.391153
v 6.645905 -58.975975 -26.337149
v 0.712256 -59.037659 -29.260948
v 3.881522 -59.147617 -29.526138
v 14.211530 -57.615314 -14.634113
v 20.510502 -58.999092 -7.800479
v 14.500000 -58.499950 -10.716643
v 14.750000 -59.000000 -11.550003
v 14.500000 -58.499950 -6.883363
v 23.204967 -59.092876 -0.675354
v 17.694435 -57.666599 -5.617019
v 14.750000 -59.000000 -6.172584
v 14.750000 -59.000000 -6.050003
v 21.221010 -58.968235 8.149442
v 17.613626 -57.909035 9.691042
v 20.220013 -59.089504 14.375984
v -14.057680 -58.076878 -14.480264
v -11.535265 -59.112339 -26.505301
v -19.897633 -59.049988 -18.817495
v -14.750000 -59.000000 -11.550003
v -14.500000 -58.624966 -10.674974
v -14.750000 -59.000000 -6.050003
v -14.750000 -59.000000 -6.172584
v -14.500000 -57.499855 -6.550019
v -17.613626 -57.909035 -5.536209
v -28.119865 -59.062508 -6.174991
v -17.516655 -58.199959 9.594070
v -28.434420 -59.059975 -3.907284
v -19.592348 -59.014015 16.904570
v -2.059195 13.429299 -32.458134
v -22.304779 -32.338322 -2.511905
v 18.480268 -46.242207 -11.635410
v 13.599220 -45.499157 -23.712315
v 5.579948 -48.690357 -28.489691
v -11.561240 -30.885378 -21.646854
v 14.365378 13.846248 -5.787959
v 16.464373 9.571422 -6.478579
v 15.607186 9.285702 -10.835703
v 14.750000 12.000001 -15.172580
v -14.750000 12.000001 -15.172580
v -16.083401 9.444436 -10.994435
v -16.464373 9.571422 -6.478578
v -14.295447 13.636447 -5.718028
v -14.500000 10.000001 -11.550000
v -16.000000 8.500000 -7.550000
v -16.000000 -60.500000 -10.050003
v -16.000000 8.500000 -10.050000
v -16.000000 -60.500000 -7.550003
v -14.500000 10.000000 -6.050000
v -18.250000 10.500000 -6.172581
v -18.250000 10.500000 10.327419
v 18.250000 10.500000 10.327419
v 18.250000 10.500000 -6.172581
v 14.500000 10.000000 -6.050000
v 16.000000 -60.500000 -10.050003
v 16.000000 8.500000 -7.550000
v 16.000000 10.000001 -11.550000
v 16.000000 -60.500000 -7.550003
v -23.816269 10.550515 -25.161861
v 26.958950 13.864666 -7.033163
v 13.252992 -32.395977 -18.957087
v 0.092977 -31.330692 -26.840593
v -16.750000 12.000000 8.827420
v -16.750000 12.000000 -4.672581
v 16.750000 12.000000 -4.672581
v 16.750000 12.000000 8.827420
v -2.963957 -5.644958 -30.930639
v 14.634333 13.592426 -24.146872
vn -0.0951 0.0053 0.9955
vn 0.2572 0.3461 0.9022
vn -0.5218 -0.1185 0.8448
vn -0.1232 0.2860 0.9503
vn 0.1413 -0.1821 0.9731
vn 0.7277 -0.1030 0.6781
vn -0.5643 0.1898 0.8035
vn -0.6203 -0.0594 0.7821
vn -0.6024 0.2240 0.7661
vn 0.3760 0.1038 0.9208
vn -0.1219 -0.0291 0.9921
vn 0.7227 0.0239 0.6907
vn 0.7394 0.0837 0.6680
vn 0.9432 0.2549 0.2129
vn -0.8955 0.2201 0.3869
vn -0.6837 -0.1896 0.7047
vn -0.8828 -0.1519 0.4445
vn -0.6071 0.2076 0.7670
vn 0.0000 -1.0000 0.0000
vn -0.3015 -0.9045 -0.3015
vn -0.5924 -0.4920 0.6380
vn 0.3015 -0.9045 0.3015
vn 0.4720 -0.7446 -0.4720
vn -0.0655 -0.0781 0.9948
vn 0.0771 0.9959 0.0464
vn 0.9165 -0.0975 0.3879
vn -0.0749 0.9948 0.0684
vn -0.0751 0.9948 0.0685
vn -0.0699 0.9954 0.0658
vn 0.7128 0.0973 0.6946
vn 0.9708 0.0785 0.2268
vn -0.9096 0.1428 0.3903
vn -0.8917 0.1939 0.4089
vn -0.8384 0.0061 0.5450
vn -0.9006 -0.1787 0.3961
vn -0.8942 0.1230 0.4304
vn 0.9287 0.0367 -0.3689
vn 0.9307 0.0384 -0.3637
vn 0.9281 0.0433 -0.3699
vn 0.9305 0.0389 -0.3642
vn 0.9270 0.0424 -0.3727
vn 0.9270 0.0423 -0.3727
vn 0.9861 0.0970 0.1348
vn 0.5667 -0.2519 -0.7844
vn 0.5668 -0.2519 -0.7844
vn 0.6744 -0.0853 -0.7334
vn 0.7861 -0.0422 -0.6167
vn -0.0347 0.0898 -0.9954
vn -0.2131 0.1705 -0.9620
vn -0.6701 0.1261 -0.7315
vn -0.8224 0.1906 -0.5359
vn -0.9911 0.0531 -0.1223
vn -1.0000 -0.0000 0.0000
vn 0.0000 -0.0000 1.0000
vn 1.0000 0.0000 0.0000
vn -0.9045 -0.3015 0.3015
vn 0.5774 0.5774 0.5774
vn 0.5774 -0.5774 -0.5774
vn 0.5774 0.5774 -0.5774
vn 0.5774 -0.5774 0.5774
vn -0.9045 -0.3015 -0.3015
vn 0.0000 0.0000 -1.0000
vn -0.2499 -0.5654 0.7860
vn 0.1938 0.6916 0.6958
vn 0.2682 0.9139 -0.3046
vn -0.3084 0.9251 -0.2218
vn -0.1558 0.6864 0.7103
vn 0.0975 -0.9506 0.2948
vn 0.8400 -0.4944 -0.2237
vn -0.7303 -0.5109 -0.4535
vn -0.6653 0.4494 0.5962
vn -0.8002 0.4776 -0.3627
vn -0.5774 -0.5774 0.5774
vn 0.8225 -0.0056 0.5687
vn -0.1397 0.9902 -0.0032
vn 0.9358 -0.0822 0.3428
vn -0.0689 0.9955 0.0653
vn -0.8473 0.2708 -0.4569
vn -0.0336 0.9991 -0.0240
vn -0.9533 -0.1668 -0.2518
vn 0.8893 0.0960 -0.4472
vn 0.9189 0.1555 -0.3625
vn 0.3984 0.3275 -0.8568
vn -0.4056 -0.0536 -0.9125
vn -0.5745 -0.6461 -0.5025
vn 0.5745 -0.6475 -0.5007
vn 0.6016 -0.7908 0.1128
vn -0.3112 -0.0696 -0.9478
vn 0.8882 -0.1521 -0.4335
vn 0.0304 0.9984 -0.0474
vn -0.8272 -0.2883 -0.4823
vn 0.5070 0.2510 -0.8246
vn -0.4024 -0.1954 -0.8944
vn 0.4493 -0.0994 -0.8878
vn -0.3915 -0.1887 -0.9006
vn 0.8089 -0.0885 -0.5813
vn 0.5030 -0.1120 -0.8570
vn 0.4389 -0.0879 -0.8942
vn 0.1025 -0.0090 -0.9947
vn -0.2617 -0.3290 -0.9074
vn 0.5224 0.1127 -0.8452
vn 0.1305 -0.2816 -0.9506
vn -0.1378 0.1762 -0.9747
vn -0.7314 0.0813 -0.6770
vn 0.5650 -0.1918 -0.8025
vn 0.6179 0.0608 -0.7839
vn 0.6047 -0.2250 -0.7640
vn -0.3894 -0.1065 -0.9149
vn 0.3944 -0.0451 0.9178
vn 0.3465 -0.5246 0.7777
vn -0.3894 -0.1052 -0.9150
vn 0.1216 0.0285 -0.9922
vn -0.7230 -0.0233 -0.6905
vn -0.7328 -0.0811 -0.6756
vn -0.7389 -0.0828 -0.6687
vn -0.7407 -0.0833 -0.6667
vn -0.7298 -0.0803 -0.6789
vn -0.9462 -0.2408 -0.2160
vn 0.8953 -0.2191 -0.3879
vn 0.6852 0.1890 -0.7034
vn 0.8822 0.1512 -0.4459
vn -0.4830 0.5151 0.7081
vn 0.6105 -0.1956 -0.7675
vn 0.6113 -0.1927 -0.7676
vn -0.4947 0.4930 0.7157
vn -0.3483 0.6223 0.7010
vn 0.0953 0.8277 0.5530
vn -0.0495 -0.0545 0.9973
vn 0.0190 0.9949 -0.0986
vn 0.0281 0.9966 -0.0780
vn 0.0092 0.9980 -0.0631
vn 0.2824 0.9585 -0.0396
vn 0.1021 0.9940 -0.0402
vn -0.1662 0.9861 -0.0007
vn -0.9108 -0.4121 -0.0260
vn 0.2077 0.9594 -0.1910
vn 0.7903 0.2660 0.5520
vn 0.7646 0.6427 -0.0482
vn 0.2665 0.9638 -0.0059
vn 0.1324 0.9585 -0.2523
vn 0.8944 0.4472 0.0000
vn 0.5125 0.7767 0.3662
vn 0.3043 0.9507 0.0589
vn 0.1945 0.9776 0.0802
vn 0.2082 0.9696 0.1285
vn -0.0413 0.9947 -0.0943
vn -0.1057 0.9944 -0.0017
vn -0.0884 0.9950 -0.0462
vn 0.8184 -0.5745 0.0124
vn -0.7299 0.6796 0.0728
vn -0.9864 0.1644 0.0000
vn 0.2242 0.2025 0.9533
vn -0.6881 0.2828 0.6682
vn 0.0225 0.9974 0.0691
vn -0.8767 0.3169 -0.3618
vn -0.1183 0.9847 -0.1282
vn 0.2813 0.1898 0.9407
vn -0.0897 0.9950 -0.0439
vn 0.0144 0.9994 0.0318
vn -0.1013 0.9931 0.0588
vn -0.1115 0.9937 0.0070
vn 0.0509 0.9875 0.1494
vn 0.1189 0.9473 0.2974
vn -0.1168 0.9902 0.0771
vn -0.0741 0.9938 0.0824
vn -0.8967 0.0688 0.4373
vn -0.0765 -0.9960 -0.0452
vn -0.9145 0.0976 -0.3925
vn 0.0762 -0.9946 -0.0698
vn 0.0718 -0.9954 -0.0637
vn 0.0702 -0.9953 -0.0666
vn -0.7221 -0.0930 -0.6855
vn -0.9723 -0.0777 -0.2206
vn -0.9711 -0.0794 -0.2250
vn -0.9730 -0.0766 -0.2177
vn -0.9706 -0.0801 -0.2268
vn 0.9134 -0.1221 -0.3884
vn 0.9089 -0.1443 -0.3912
vn 0.9094 -0.1420 -0.3909
vn 0.9139 -0.1192 -0.3880
vn 0.8915 -0.1957 -0.4087
vn 0.8380 -0.0166 -0.5455
vn 0.9014 0.1793 -0.3942
vn 0.8784 -0.0946 -0.4686
vn -0.9334 -0.0390 0.3567
vn -0.9322 -0.0360 0.3601
vn -0.9342 -0.0401 0.3545
vn -0.9318 -0.0344 0.3613
vn 0.3756 0.2980 -0.8776
vn 0.5105 0.2577 -0.8204
vn -0.9271 -0.0475 0.3718
vn -0.9827 -0.0936 -0.1598
vn -0.5724 0.2509 0.7806
vn 0.1529 -0.4363 -0.8867
vn 0.2941 -0.3865 -0.8741
vn -0.5676 0.2538 0.7832
vn -0.6669 0.0858 0.7402
vn -0.7559 0.0581 0.6521
vn 0.0790 -0.1110 0.9907
vn 0.2141 -0.1684 0.9622
vn 0.2172 -0.1738 0.9605
vn 0.2139 -0.1681 0.9623
vn 0.2125 -0.1656 0.9630
vn 0.6710 -0.1252 0.7308
vn 0.8217 -0.1866 0.5385
vn 0.8233 -0.1816 0.5378
vn 0.8256 -0.1740 0.5368
vn 0.8210 -0.1889 0.5388
vn 0.9898 -0.0375 0.1373
vn 0.9164 0.3374 0.2154
vn -0.9995 0.0251 0.0193
vn 0.7011 0.2358 0.6730
vn -0.9997 0.0250 0.0000
vn 0.9842 -0.0105 -0.1766
vn 0.9841 -0.0105 -0.1773
vn 0.9745 0.1820 -0.1310
vn 0.9856 0.1175 -0.1213
vn 0.0000 -0.0077 -1.0000
vn -0.0039 -0.0094 -0.9999
vn -0.0013 -0.0083 -1.0000
vn -0.0053 -0.0099 -0.9999
vn -0.9636 0.1807 -0.1970
vn -0.9712 -0.0169 -0.2376
vn -0.9544 0.2452 -0.1705
vn -0.9719 -0.0170 -0.2350
vn 0.9997 0.0250 0.0000
vn 0.9995 0.0251 0.0200
vn -0.6906 0.2412 0.6818
vn -0.8767 0.3911 0.2801
vn -0.4064 -0.6464 0.6458
vn -0.9560 0.0035 0.2932
vn 0.3315 -0.0012 0.9435
vn -0.5774 0.5774 0.5774
vn -0.5774 0.5774 -0.5774
vn -0.5774 -0.5774 -0.5774
vn 0.2072 0.0071 -0.9783
vn -0.4622 -0.6343 -0.6196
vn -0.8625 -0.0247 -0.5054
vn -0.5112 0.6519 -0.5600
vn 0.1099 0.0055 -0.9939
vn -0.6396 0.5021 -0.5821
vn -0.2210 -0.0111 -0.9752
vn -1.0000 -0.0093 0.0000
vn -0.5222 0.5995 0.6066
vn -0.9999 -0.0107 0.0062
vn 0.0000 -0.0107 0.9999
vn 0.6367 0.6299 0.4448
vn -0.0027 -0.0093 1.0000
vn 1.0000 -0.0093 0.0000
vn 0.5810 0.5158 -0.6296
vn 1.0000 -0.0081 0.0052
vn -0.1047 -0.0073 -0.9945
vn 0.2082 0.9547 -0.2125
vn 0.1827 0.0062 -0.9831
vn 0.9501 0.0034 -0.3120
vn 0.4532 -0.6691 -0.5890
vn -0.2133 -0.0008 -0.9770
vn 0.3891 -0.6889 -0.6116
vn 0.4765 0.6082 -0.6349
vn 0.5010 0.5209 0.6911
vn 0.8286 -0.0058 0.5598
vn 0.9548 -0.0173 0.2968
vn -0.8828 0.0160 -0.4695
vn 0.1317 -0.9913 0.0015
vn -0.9371 0.0805 -0.3397
vn 0.0758 -0.9947 -0.0694
vn 0.8487 -0.2677 0.4562
vn 0.0315 -0.9993 0.0211
vn 0.9513 0.1695 0.2574
vn -0.8878 -0.0973 0.4498
vn -0.9191 -0.1556 0.3619
vn -0.3858 -0.3237 0.8639
vn 0.4080 0.0423 0.9120
vn -0.7763 0.2940 -0.5576
vn -0.5854 0.5438 0.6014
vn 0.0000 0.9812 -0.1930
vn -0.0060 0.9846 -0.1750
vn -0.0046 0.9997 -0.0223
vn 0.7887 0.2608 -0.5567
vn 0.5853 0.5409 0.6040
vn -0.3247 -0.9445 -0.0501
vn -0.2055 -0.7258 0.6565
vn -0.8128 0.5695 0.1226
vn 0.3056 -0.9521 0.0091
vn 0.2036 -0.9780 0.0447
vn 0.3101 0.0613 0.9487
vn -0.8878 0.1510 0.4348
vn 0.0029 -0.9999 0.0138
vn 0.8262 0.2856 0.4856
vn -0.5131 -0.2404 0.8240
vn 0.4054 0.1957 0.8929
vn -0.4445 0.0924 0.8910
vn 0.3962 0.1902 0.8982
vn -0.8089 0.0899 0.5811
vn -0.5040 0.1118 0.8564
vn -0.4419 0.0895 0.8926
usemtl Default_OBJ
s 1
f 1//1 2//1 3//1
f 1//2 3//2 4//2
f 1//3 5//3 2//3
f 2//4 6//4 3//4
f 7//5 1//5 4//5
f 3//6 8//6 4//6
f 2//7 5//7 9//7
f 1//8 10//8 5//8
f 2//9 9//9 6//9
f 11//10 6//10 12//10
f 3//10 6//10 11//10
f 7//11 13//11 1//11
f 4//12 14//12 7//12
f 15//13 8//13 3//13
f 11//13 15//13 3//13
f 4//14 8//14 16//14
f 17//15 9//15 5//15
f 13//16 10//16 1//16
f 5//17 10//17 18//17
f 19//18 9//18 20//18
f 6//18 9//18 19//18
f 21//19 22//19 23//19
f 24//19 25//19 26//19
f 23//19 27//19 24//19
f 22//19 27//19 23//19
f 28//19 29//19 22//19
f 22//19 29//19 27//19
f 29//19 30//19 27//19
f 28//19 31//20 29//21
f 32//19 33//19 28//19
f 28//19 33//19 31//20
f 31//20 34//19 35//19
f 33//19 34//19 31//20
f 36//19 37//19 32//19
f 32//19 37//19 33//19
f 36//19 38//19 37//19
f 25//19 39//19 40//19
f 24//19 39//19 25//19
f 27//19 39//19 24//19
f 39//19 41//19 40//19
f 42//19 43//22 39//19
f 39//19 43//22 41//19
f 44//19 45//19 46//19
f 38//19 15//19 37//19
f 46//23 47//19 43//22
f 45//19 47//19 46//19
f 43//22 48//19 41//19
f 47//19 48//19 43//22
f 11//19 49//19 15//19
f 15//19 49//19 37//19
f 49//19 50//19 47//19
f 47//19 50//19 48//19
f 11//19 19//19 49//19
f 12//19 19//19 11//19
f 49//19 51//19 50//19
f 19//19 20//19 49//19
f 49//19 20//19 51//19
f 6//24 19//24 12//24
f 52//25 13//25 7//25
f 4//26 16//26 14//26
f 52//27 7//28 14//29
f 15//30 38//30 8//30
f 36//31 32//31 16//31
f 36//31 16//31 8//31
f 17//32 51//32 9//32
f 50//32 51//32 17//32
f 17//33 5//33 53//33
f 18//34 10//34 13//34
f 53//35 5//35 18//35
f 51//36 20//36 9//36
f 32//37 28//38 54//39
f 32//37 54//39 16//37
f 28//38 22//40 54//39
f 21//41 55//42 54//39
f 22//40 21//41 54//39
f 38//43 36//43 8//43
f 55//44 21//45 23//45
f 56//44 55//44 23//45
f 56//46 23//46 24//46
f 24//47 26//47 56//47
f 25//48 56//48 26//48
f 40//49 56//49 25//49
f 57//49 56//49 40//49
f 57//50 40//50 41//50
f 41//51 48//51 17//51
f 41//51 17//51 57//51
f 48//52 50//52 17//52
f 58//53 59//53 34//53
f 34//53 59//53 35//53
f 30//53 60//53 27//53
f 58//53 60//53 59//53
f 60//53 61//53 27//53
f 58//53 61//53 60//53
f 61//54 62//54 27//54
f 27//54 62//54 39//54
f 62//55 63//55 39//55
f 39//55 63//55 42//55
f 44//55 64//55 45//55
f 63//55 65//55 64//55
f 62//55 65//55 63//55
f 64//55 65//55 45//55
f 66//56 43//22 42//54
f 66//56 42//54 63//54
f 67//57 68//58 69//59
f 67//57 70//60 68//58
f 46//23 71//61 64//62
f 46//23 64//62 44//62
f 65//63 72//64 45//54
f 45//54 72//54 47//54
f 72//64 73//65 47//55
f 47//55 73//55 49//55
f 73//65 74//66 49//62
f 49//62 74//62 37//62
f 74//66 75//67 37//53
f 37//53 75//53 33//53
f 75//67 58//68 33//54
f 33//54 58//54 34//54
f 35//62 59//62 76//69
f 35//62 76//69 31//20
f 77//70 78//71 79//72
f 80//73 78//71 77//70
f 79//74 30//54 29//21
f 60//54 30//54 79//54
f 52//75 81//75 13//75
f 16//76 82//76 14//76
f 82//77 52//27 14//29
f 17//78 53//78 57//78
f 81//79 18//79 13//79
f 53//80 18//80 81//80
f 54//81 83//81 16//81
f 54//82 55//82 83//82
f 83//83 55//83 56//83
f 57//84 84//84 56//84
f 65//63 85//73 86//85
f 61//19 58//68 62//19
f 62//19 58//68 65//19
f 87//86 88//60 58//68
f 58//68 88//60 65//19
f 65//19 88//60 85//73
f 59//19 60//19 79//87
f 59//19 79//87 76//69
f 71//61 66//56 63//19
f 71//61 63//19 64//19
f 81//88 52//88 89//88
f 16//89 83//89 82//89
f 82//90 90//90 52//90
f 57//91 53//91 81//91
f 84//92 83//92 56//92
f 81//93 84//93 57//93
f 52//94 90//94 89//94
f 81//95 89//95 84//95
f 83//96 90//96 82//96
f 90//97 83//97 84//97
f 90//98 84//98 89//98
f 91//99 93//99 92//99
f 91//100 94//100 93//100
f 91//101 92//101 95//101
f 92//102 93//102 96//102
f 97//103 94//103 91//103
f 93//104 94//104 98//104
f 92//105 99//105 95//105
f 91//106 95//106 100//106
f 92//107 96//107 99//107
f 101//108 102//109 96//110
f 93//111 101//108 96//110
f 97//112 91//112 103//112
f 94//113 97//113 104//113
f 105//114 93//115 98//116
f 101//117 93//115 105//114
f 94//118 106//118 98//118
f 107//119 95//119 99//119
f 103//120 91//120 100//120
f 95//121 108//121 100//121
f 109//122 110//123 99//124
f 96//125 109//122 99//124
f 111//126 113//127 112//128
f 114//129 116//130 115//131
f 113//127 114//129 117//132
f 112//128 113//127 117//132
f 118//133 112//128 119//134
f 112//128 117//132 119//134
f 119//134 117//132 120//135
f 118//136 119//137 121//138
f 122//139 118//136 123//140
f 118//136 121//138 123//140
f 121//138 125//141 124//142
f 123//140 121//138 124//142
f 126//143 122//139 127//144
f 122//139 123//140 127//144
f 126//143 127//144 128//145
f 115//131 130//146 129//147
f 114//129 115//131 129//147
f 117//132 114//129 129//147
f 129//147 130//146 131//148
f 132//149 129//147 133//150
f 129//147 131//148 133//150
f 134//151 136//152 135//153
f 128//145 127//144 105//154
f 136//155 133//150 137//156
f 135//153 136//152 137//157
f 133//150 131//148 138//158
f 137//156 133//150 138//158
f 101//159 105//154 139//160
f 105//154 127//144 139//160
f 139//160 137//156 140//161
f 137//156 138//158 140//161
f 101//159 139//160 109//162
f 102//163 101//159 109//162
f 139//160 140//161 141//164
f 109//162 139//160 110//165
f 139//160 141//164 110//165
f 96//166 102//166 109//166
f 142//167 97//167 103//167
f 94//168 104//168 106//168
f 142//169 104//170 97//171
f 105//172 98//172 128//172
f 126//173 106//174 122//175
f 126//173 98//176 106//174
f 107//177 99//178 141//179
f 140//180 107//177 141//179
f 107//181 143//181 95//181
f 108//182 103//182 100//182
f 143//183 108//183 95//183
f 141//184 99//184 110//184
f 122//185 144//186 118//187
f 122//185 106//188 144//186
f 118//187 144//186 112//189
f 111//190 144//186 145//191
f 112//189 144//186 111//190
f 128//192 98//192 126//192
f 145//193 113//194 111//195
f 146//196 113//194 145//193
f 146//197 114//197 113//197
f 114//198 146//198 116//198
f 115//199 116//199 146//199
f 130//200 115//201 146//202
f 147//203 130//200 146//202
f 147//204 131//204 130//204
f 131//205 107//206 138//207
f 131//205 147//208 107//206
f 138//209 107//209 140//209
f 148//210 124//211 149//212
f 124//211 125//213 149//212
f 120//214 117//215 150//216
f 148//210 149//212 150//216
f 150//216 117//215 151//217
f 148//210 150//216 151//217
f 151//218 117//219 152//220
f 117//219 129//221 152//220
f 152//222 129//223 153//224
f 129//223 132//225 153//224
f 134//226 135//227 154//228
f 153//224 154//228 155//229
f 152//222 153//224 155//229
f 154//228 135//227 155//229
f 156//230 132//231 133//150
f 156//230 153//232 132//231
f 157//233 159//234 158//235
f 157//233 158//235 160//73
f 136//155 154//236 161//237
f 136//155 134//238 154//236
f 155//239 135//240 162//241
f 135//242 137//242 162//242
f 162//241 137//243 163//244
f 137//245 139//245 163//245
f 163//244 139//246 164//247
f 139//248 127//248 164//248
f 164//247 127//249 165//250
f 127//251 123//251 165//251
f 165//250 123//252 148//253
f 123//254 124//254 148//254
f 125//255 166//256 149//257
f 125//255 121//138 166//256
f 167//258 169//259 168//260
f 170//60 167//258 168//260
f 169//261 119//137 120//262
f 150//263 169//263 120//263
f 142//264 103//264 171//264
f 106//265 104//265 172//265
f 172//266 104//170 142//169
f 107//267 147//267 143//267
f 171//268 103//268 108//268
f 143//269 171//269 108//269
f 144//270 106//270 173//270
f 144//271 173//271 145//271
f 173//272 146//272 145//272
f 147//273 146//273 174//273
f 155//239 176//274 175//275
f 151//276 152//277 148//253
f 152//277 155//278 148//253
f 177//279 148//253 178//280
f 148//253 155//278 178//280
f 155//278 175//275 178//280
f 149//281 169//282 150//283
f 149//281 166//256 169//282
f 161//237 153//284 156//230
f 161//237 154//285 153//284
f 171//286 179//286 142//286
f 106//287 172//287 173//287
f 172//288 142//288 180//288
f 147//289 171//289 143//289
f 174//290 146//290 173//290
f 171//291 147//291 174//291
f 142//292 179//292 180//292
f 171//293 174//293 179//293
f 173//294 172//294 180//294
f 180//295 174//295 173//295
f 180//296 179//296 174//296
f 29//21 31//20 121//138 119//137
f 72//64 65//63 155//239 162//241
f 74//66 73//65 163//244 164//247
f 86//85 85//73 175//275 176//274
f 80//73 77//70 167//258 170//60
f 65//63 86//85 176//274 155//239
f 85//73 88//60 178//280 175//275
f 58//68 75//67 165//250 148//253
f 66//56 71//61 161//237 156//230
f 31//20 76//69 166//256 121//138
f 71//61 46//23 136//155 161//237
f 75//67 74//66 164//247 165//250
f 79//72 78//71 168//260 169//259
f 78//71 80//73 170//60 168//260
f 87//86 58//68 148//253 177//279
f 46//23 43//22 133//150 136//155
f 43//22 66//56 156//230 133//150
f 67//57 69//59 159//234 157//233
f 70//60 67//57 157//233 160//73
f 88//60 87//86 177//279 178//280
f 79//74 29//21 119//137 169//261
f 76//69 79//87 169//282 166//256
f 69//59 68//58 158//235 159//234
f 68//58 70//60 160//73 158//235
f 73//65 72//64 162//241 163//244
f 77//70 79//72 169//259 167//258
